<?xml version="1.0" encoding="utf-8"?>
<!-- Generator: Adobe Illustrator 19.2.1, SVG Export Plug-In . SVG Version: 6.00 Build 0)  -->
<svg version="1.1" xmlns="http://www.w3.org/2000/svg" xmlns:xlink="http://www.w3.org/1999/xlink" x="0px" y="0px"
	 viewBox="0 0 600.3 262.1" style="enable-background:new 0 0 600.3 262.1;" xml:space="preserve">
<style type="text/css">
	.st0{opacity:0.5;clip-path:url(#XMLID_4_);}
	.st1{fill:#37CFAB;}
	.st2{opacity:0.8;}
	.st3{fill:#FFFFFF;}
	.st4{font-family:'Montserrat-Bold';}
	.st5{font-size:20px;}
	.st6{font-family:'Montserrat-Medium';}
	.st7{font-family:'Montserrat-Regular';}
	.st8{opacity:0.8;fill:#FFFFFF;}
</style>
<g id="Layer_1">
	<g>
		<defs>
			<path id="XMLID_1_" d="M540.6,255.8H59.8c-24.9,0-45.3-20.4-45.3-45.3V51.6c0-24.9,20.4-45.3,45.3-45.3h480.8
				c24.9,0,45.3,20.4,45.3,45.3v158.8C585.9,235.4,565.5,255.8,540.6,255.8z"/>
		</defs>
		<radialGradient id="XMLID_3_" cx="302.7068" cy="137.6964" r="495.0252" gradientUnits="userSpaceOnUse">
			<stop  offset="0" style="stop-color:#33363D"/>
			<stop  offset="0.2602" style="stop-color:#31343B"/>
			<stop  offset="0.4067" style="stop-color:#2A2D32"/>
			<stop  offset="0.525" style="stop-color:#1F2025"/>
			<stop  offset="0.6275" style="stop-color:#0E0F11"/>
			<stop  offset="0.6933" style="stop-color:#000000"/>
			<stop  offset="1" style="stop-color:#000000"/>
		</radialGradient>
		<use xlink:href="#XMLID_1_"  style="overflow:visible;fill:url(#XMLID_3_);"/>
		<clipPath id="XMLID_4_">
			<use xlink:href="#XMLID_1_"  style="overflow:visible;"/>
		</clipPath>
		<g class="st0">
			<g>
				<g>
					<g>
						<g>
							<line class="st1" x1="464.8" y1="179.2" x2="481.4" y2="191.9"/>
							<polygon class="st1" points="481.4,191.9 464.8,179.2 464.9,179.1 481.5,191.8 							"/>
						</g>
						<g>
							<line class="st1" x1="464.8" y1="179.2" x2="481.4" y2="191.9"/>
							<polygon class="st1" points="481.4,191.9 464.8,179.2 464.9,179.1 481.5,191.8 							"/>
						</g>
					</g>
					<g>
						<g>
							<line class="st1" x1="516.2" y1="222.8" x2="464.8" y2="179.2"/>
							<polygon class="st1" points="516.1,222.9 464.7,179.3 465,179 516.4,222.7 							"/>
						</g>
						<g>
							<line class="st1" x1="516.2" y1="222.8" x2="481.4" y2="191.9"/>
							<polygon class="st1" points="516.2,222.9 481.3,192 481.5,191.8 516.3,222.7 							"/>
						</g>
						<g>
							<line class="st1" x1="516.2" y1="222.8" x2="481.4" y2="191.9"/>
							<polygon class="st1" points="516.2,222.9 481.3,192 481.5,191.8 516.3,222.7 							"/>
						</g>
					</g>
					<g>
						<g>
							<line class="st1" x1="531.4" y1="149.6" x2="481.4" y2="191.9"/>
							<polygon class="st1" points="531.5,149.8 481.5,192 481.3,191.7 531.3,149.5 							"/>
						</g>
						<g>
							<line class="st1" x1="531.4" y1="149.6" x2="481.4" y2="191.9"/>
							<polygon class="st1" points="531.5,149.8 481.5,192 481.3,191.7 531.3,149.5 							"/>
						</g>
					</g>
					<g>
						<g>
							<line class="st1" x1="530" y1="124.5" x2="531.4" y2="149.6"/>
							
								<rect x="530.6" y="124.5" transform="matrix(0.9983 -5.750526e-002 5.750526e-002 0.9983 -7.004 30.7448)" class="st1" width="0.2" height="25.2"/>
						</g>
					</g>
					<g>
						<g>
							<line class="st1" x1="495.7" y1="124.1" x2="530" y2="124.5"/>
							<polygon class="st1" points="530,124.6 495.7,124.2 495.7,124 530,124.4 							"/>
						</g>
						<g>
							<line class="st1" x1="495.7" y1="124.1" x2="531.4" y2="149.6"/>
							
								<rect x="513.4" y="114.9" transform="matrix(0.5825 -0.8128 0.8128 0.5825 103.1557 474.5565)" class="st1" width="0.3" height="43.9"/>
						</g>
						<g>
							<line class="st1" x1="495.7" y1="124.1" x2="464.8" y2="179.2"/>
							
								<rect x="448.7" y="151.5" transform="matrix(0.4892 -0.8722 0.8722 0.4892 113.0967 496.3433)" class="st1" width="63.1" height="0.3"/>
						</g>
						<g>
							<line class="st1" x1="495.7" y1="124.1" x2="481.4" y2="191.9"/>
							<polygon class="st1" points="481.6,191.9 481.3,191.8 495.6,124 495.9,124.1 							"/>
						</g>
						<g>
							<line class="st1" x1="495.7" y1="124.1" x2="481.4" y2="191.9"/>
							<polygon class="st1" points="481.6,191.9 481.3,191.8 495.6,124 495.9,124.1 							"/>
						</g>
					</g>
					<g>
						<g>
							<line class="st1" x1="449.7" y1="181" x2="464.8" y2="179.2"/>
							<polygon class="st1" points="464.9,179.2 449.7,181 449.7,180.9 464.8,179.1 							"/>
						</g>
						<g>
							<line class="st1" x1="449.7" y1="181" x2="481.4" y2="191.9"/>
							<polygon class="st1" points="481.4,192 449.7,181.1 449.8,180.9 481.5,191.8 							"/>
						</g>
						<g>
							<line class="st1" x1="449.7" y1="181" x2="481.4" y2="191.9"/>
							<polygon class="st1" points="481.4,192 449.7,181.1 449.8,180.9 481.5,191.8 							"/>
						</g>
					</g>
					<g>
						<g>
							<line class="st1" x1="398.3" y1="288.1" x2="356.4" y2="310.1"/>
							<polygon class="st1" points="398.4,288.2 356.5,310.2 356.4,310 398.3,288 							"/>
						</g>
					</g>
					<g>
						<g>
							<line class="st1" x1="481.1" y1="219.6" x2="449.7" y2="181"/>
							<polygon class="st1" points="481.2,219.5 481,219.7 449.6,181.1 449.8,180.9 							"/>
						</g>
						<g>
							<line class="st1" x1="481.1" y1="219.6" x2="516.2" y2="222.8"/>
							<polygon class="st1" points="516.2,222.9 481.1,219.7 481.1,219.5 516.3,222.7 							"/>
						</g>
						<g>
							<line class="st1" x1="481.1" y1="219.6" x2="464.8" y2="179.2"/>
							
								<rect x="472.8" y="177.6" transform="matrix(0.9293 -0.3693 0.3693 0.9293 -40.1986 188.7632)" class="st1" width="0.3" height="43.6"/>
						</g>
						<g>
							<line class="st1" x1="481.1" y1="219.6" x2="481.4" y2="191.9"/>
							
								<rect x="467.4" y="205.6" transform="matrix(7.965706e-003 -1 1 7.965706e-003 271.693 685.3551)" class="st1" width="27.8" height="0.2"/>
						</g>
						<g>
							<line class="st1" x1="481.1" y1="219.6" x2="481.4" y2="191.9"/>
							
								<rect x="467.4" y="205.6" transform="matrix(7.965706e-003 -1 1 7.965706e-003 271.693 685.3551)" class="st1" width="27.8" height="0.2"/>
						</g>
					</g>
					<g>
						<g>
							<line class="st1" x1="481.1" y1="219.6" x2="449.7" y2="181"/>
							<polygon class="st1" points="481.2,219.5 481,219.7 449.6,181.1 449.8,180.9 							"/>
						</g>
						<g>
							<line class="st1" x1="481.1" y1="219.6" x2="516.2" y2="222.8"/>
							<polygon class="st1" points="516.2,222.9 481.1,219.7 481.1,219.5 516.3,222.7 							"/>
						</g>
						<g>
							<line class="st1" x1="481.1" y1="219.6" x2="464.8" y2="179.2"/>
							
								<rect x="472.8" y="177.6" transform="matrix(0.9293 -0.3693 0.3693 0.9293 -40.1986 188.7632)" class="st1" width="0.3" height="43.6"/>
						</g>
						<g>
							<line class="st1" x1="481.1" y1="219.6" x2="481.4" y2="191.9"/>
							
								<rect x="467.4" y="205.6" transform="matrix(7.965706e-003 -1 1 7.965706e-003 271.693 685.3551)" class="st1" width="27.8" height="0.2"/>
						</g>
						<g>
							<line class="st1" x1="481.1" y1="219.6" x2="481.4" y2="191.9"/>
							
								<rect x="467.4" y="205.6" transform="matrix(7.965706e-003 -1 1 7.965706e-003 271.693 685.3551)" class="st1" width="27.8" height="0.2"/>
						</g>
					</g>
					<g>
						<g>
							<line class="st1" x1="423.8" y1="263.1" x2="398.3" y2="288.1"/>
							<polygon class="st1" points="398.4,288.2 398.2,288 423.7,263 423.9,263.1 							"/>
						</g>
					</g>
					<g>
						<g>
							<line class="st1" x1="546.3" y1="165" x2="495.7" y2="124.1"/>
							<polygon class="st1" points="546.2,165.1 495.6,124.2 495.8,124 546.4,164.8 							"/>
						</g>
						<g>
							<line class="st1" x1="546.3" y1="165" x2="530" y2="124.5"/>
							
								<rect x="538" y="122.9" transform="matrix(0.9269 -0.3753 0.3753 0.9269 -14.9863 212.5269)" class="st1" width="0.3" height="43.6"/>
						</g>
						<g>
							<line class="st1" x1="546.3" y1="165" x2="531.4" y2="149.6"/>
							<polygon class="st1" points="546.3,164.9 546.2,165 531.3,149.7 531.4,149.6 							"/>
						</g>
						<g>
							<line class="st1" x1="546.3" y1="165" x2="516.2" y2="222.8"/>
							
								<rect x="498.7" y="193.7" transform="matrix(0.4613 -0.8872 0.8872 0.4613 114.1564 575.7805)" class="st1" width="65.1" height="0.3"/>
						</g>
					</g>
					<g>
						<g>
							<line class="st1" x1="444.8" y1="129.6" x2="449.7" y2="181"/>
							<polygon class="st1" points="449.9,181 449.6,181 444.6,129.7 444.9,129.6 							"/>
						</g>
						<g>
							<line class="st1" x1="444.8" y1="129.6" x2="495.7" y2="124.1"/>
							
								<rect x="444.6" y="126.7" transform="matrix(0.9941 -0.1084 0.1084 0.9941 -10.9824 51.731)" class="st1" width="51.3" height="0.3"/>
						</g>
						<g>
							<line class="st1" x1="444.8" y1="129.6" x2="464.8" y2="179.2"/>
							
								<rect x="454.7" y="127.7" transform="matrix(0.9266 -0.3761 0.3761 0.9266 -24.6777 182.3797)" class="st1" width="0.3" height="53.4"/>
						</g>
					</g>
					<g>
						<g>
							<line class="st1" x1="647.1" y1="-27" x2="615.4" y2="-25.8"/>
							<polygon class="st1" points="647.1,-26.9 615.4,-25.7 615.4,-25.9 647.1,-27.2 							"/>
						</g>
					</g>
					<g>
						<g>
							<line class="st1" x1="585.5" y1="108.9" x2="606.5" y2="55"/>
							
								<rect x="567" y="81.8" transform="matrix(0.362 -0.9322 0.9322 0.362 303.8537 607.853)" class="st1" width="57.9" height="0.3"/>
						</g>
						<g>
							<line class="st1" x1="585.5" y1="108.9" x2="546.3" y2="165"/>
							<polygon class="st1" points="546.4,165.1 546.1,164.9 585.4,108.8 585.6,109 							"/>
						</g>
						<g>
							<line class="st1" x1="585.5" y1="108.9" x2="530" y2="124.5"/>
							
								<rect x="529" y="116.6" transform="matrix(0.9628 -0.2702 0.2702 0.9628 -10.7906 155.0659)" class="st1" width="57.6" height="0.3"/>
						</g>
						<g>
							<line class="st1" x1="585.5" y1="108.9" x2="531.4" y2="149.6"/>
							<polygon class="st1" points="585.6,109.1 531.5,149.8 531.3,149.5 585.4,108.8 							"/>
						</g>
					</g>
					<g>
						<g>
							<line class="st1" x1="553.1" y1="37.7" x2="537.5" y2="21.1"/>
							
								<rect x="545.2" y="18" transform="matrix(0.7265 -0.6872 0.6872 0.7265 128.9427 382.7441)" class="st1" width="0.2" height="22.7"/>
						</g>
						<g>
							<line class="st1" x1="553.1" y1="37.7" x2="606.5" y2="55"/>
							
								<rect x="579.7" y="18.2" transform="matrix(0.3083 -0.9513 0.9513 0.3083 356.981 583.5776)" class="st1" width="0.3" height="56.1"/>
						</g>
					</g>
					<g>
						<g>
							<line class="st1" x1="679.8" y1="-30.6" x2="647.1" y2="-27"/>
							<polygon class="st1" points="679.8,-30.4 647.1,-26.9 647.1,-27.2 679.8,-30.7 							"/>
						</g>
						<g>
							<line class="st1" x1="679.8" y1="-30.6" x2="615.4" y2="-25.8"/>
							<polygon class="st1" points="679.8,-30.4 615.4,-25.6 615.4,-26 679.8,-30.7 							"/>
						</g>
					</g>
					<g>
						<g>
							<line class="st1" x1="562.6" y1="74.9" x2="553.1" y2="37.7"/>
							<polygon class="st1" points="562.7,74.9 562.5,74.9 553,37.7 553.2,37.6 							"/>
						</g>
						<g>
							<line class="st1" x1="562.6" y1="74.9" x2="585.5" y2="108.9"/>
							
								<rect x="573.9" y="71.4" transform="matrix(0.8276 -0.5613 0.5613 0.8276 47.3635 338.062)" class="st1" width="0.2" height="41"/>
						</g>
						<g>
							<line class="st1" x1="562.6" y1="74.9" x2="537.5" y2="21.1"/>
							
								<rect x="549.9" y="18.3" transform="matrix(0.9063 -0.4227 0.4227 0.9063 31.2494 236.9755)" class="st1" width="0.3" height="59.4"/>
						</g>
						<g>
							<line class="st1" x1="562.6" y1="74.9" x2="606.5" y2="55"/>
							<polygon class="st1" points="606.5,55.1 562.6,75 562.5,74.8 606.4,54.8 							"/>
						</g>
						<g>
							<line class="st1" x1="562.6" y1="74.9" x2="530" y2="124.5"/>
							<polygon class="st1" points="530.2,124.6 529.9,124.4 562.4,74.8 562.7,75 							"/>
						</g>
					</g>
					<g>
						<g>
							<line class="st1" x1="647.2" y1="-29.5" x2="679.8" y2="-30.6"/>
							<polygon class="st1" points="679.8,-30.4 647.2,-29.4 647.2,-29.7 679.8,-30.7 							"/>
						</g>
						<g>
							<line class="st1" x1="647.2" y1="-29.5" x2="647.1" y2="-27"/>
							<polygon class="st1" points="647.1,-27 647,-27 647.2,-29.5 647.3,-29.5 							"/>
						</g>
						<g>
							<line class="st1" x1="647.2" y1="-29.5" x2="615.4" y2="-25.8"/>
							<polygon class="st1" points="647.2,-29.4 615.4,-25.7 615.4,-25.9 647.2,-29.7 							"/>
						</g>
					</g>
					<g>
						<g>
							<line class="st1" x1="647.2" y1="-29.5" x2="679.8" y2="-30.6"/>
							<polygon class="st1" points="679.8,-30.4 647.2,-29.4 647.2,-29.7 679.8,-30.7 							"/>
						</g>
						<g>
							<line class="st1" x1="647.2" y1="-29.5" x2="647.1" y2="-27"/>
							<polygon class="st1" points="647.1,-27 647,-27 647.2,-29.5 647.3,-29.5 							"/>
						</g>
						<g>
							<line class="st1" x1="647.2" y1="-29.5" x2="615.4" y2="-25.8"/>
							<polygon class="st1" points="647.2,-29.4 615.4,-25.7 615.4,-25.9 647.2,-29.7 							"/>
						</g>
					</g>
					<g>
						<g>
							<line class="st1" x1="592.4" y1="54.5" x2="562.6" y2="74.9"/>
							<polygon class="st1" points="592.5,54.6 562.6,75 562.5,74.8 592.4,54.4 							"/>
						</g>
						<g>
							<line class="st1" x1="592.4" y1="54.5" x2="553.1" y2="37.7"/>
							<polygon class="st1" points="592.4,54.6 553.1,37.8 553.2,37.5 592.5,54.4 							"/>
						</g>
						<g>
							<line class="st1" x1="592.4" y1="54.5" x2="585.5" y2="108.9"/>
							
								<rect x="561.5" y="81.6" transform="matrix(0.126 -0.992 0.992 0.126 433.6695 655.6904)" class="st1" width="54.9" height="0.3"/>
						</g>
						<g>
							<line class="st1" x1="592.4" y1="54.5" x2="537.5" y2="21.1"/>
							<polygon class="st1" points="592.4,54.6 537.4,21.3 537.6,21 592.5,54.4 							"/>
						</g>
						<g>
							<line class="st1" x1="592.4" y1="54.5" x2="606.5" y2="55"/>
							<polygon class="st1" points="606.5,55 592.4,54.6 592.4,54.4 606.5,54.9 							"/>
						</g>
					</g>
					<g>
						<g>
							<line class="st1" x1="671" y1="39.6" x2="606.5" y2="55"/>
							<polygon class="st1" points="671.1,39.8 606.5,55.1 606.5,54.8 671,39.4 							"/>
						</g>
					</g>
					<g>
						<g>
							<line class="st1" x1="595.8" y1="148.9" x2="585.5" y2="108.9"/>
							<polygon class="st1" points="595.9,148.9 595.7,149 585.4,109 585.6,108.9 							"/>
						</g>
						<g>
							<line class="st1" x1="595.8" y1="148.9" x2="546.3" y2="165"/>
							
								<rect x="545" y="156.8" transform="matrix(0.9514 -0.3081 0.3081 0.9514 -20.5788 183.5685)" class="st1" width="52" height="0.3"/>
						</g>
						<g>
							<line class="st1" x1="595.8" y1="148.9" x2="531.4" y2="149.6"/>
							<polygon class="st1" points="595.8,149.1 531.4,149.8 531.4,149.5 595.8,148.8 							"/>
						</g>
					</g>
					<g>
						<g>
							<line class="st1" x1="527.6" y1="220" x2="546.3" y2="165"/>
							
								<rect x="507.8" y="192.3" transform="matrix(0.323 -0.9464 0.9464 0.323 181.3272 638.4703)" class="st1" width="58.2" height="0.3"/>
						</g>
						<g>
							<line class="st1" x1="527.6" y1="220" x2="481.1" y2="219.6"/>
							
								<rect x="504.2" y="196.6" transform="matrix(8.660433e-003 -1 1 8.660433e-003 280.1508 722.2294)" class="st1" width="0.3" height="46.4"/>
						</g>
						<g>
							<line class="st1" x1="527.6" y1="220" x2="481.1" y2="219.6"/>
							
								<rect x="504.2" y="196.6" transform="matrix(8.660433e-003 -1 1 8.660433e-003 280.1508 722.2294)" class="st1" width="0.3" height="46.4"/>
						</g>
						<g>
							<line class="st1" x1="527.6" y1="220" x2="516.2" y2="222.8"/>
							<polygon class="st1" points="527.6,220.1 516.3,222.8 516.2,222.7 527.5,220 							"/>
						</g>
						<g>
							<line class="st1" x1="527.6" y1="220" x2="481.4" y2="191.9"/>
							
								<rect x="504.3" y="178.9" transform="matrix(0.5209 -0.8536 0.8536 0.5209 65.8947 529.3002)" class="st1" width="0.3" height="54"/>
						</g>
						<g>
							<line class="st1" x1="527.6" y1="220" x2="481.4" y2="191.9"/>
							
								<rect x="504.3" y="178.9" transform="matrix(0.5209 -0.8536 0.8536 0.5209 65.8947 529.3002)" class="st1" width="0.3" height="54"/>
						</g>
					</g>
					<g>
						<g>
							<line class="st1" x1="625.4" y1="125.4" x2="595.8" y2="148.9"/>
							<polygon class="st1" points="625.5,125.5 595.9,149 595.7,148.8 625.3,125.3 							"/>
						</g>
						<g>
							<line class="st1" x1="625.4" y1="125.4" x2="585.5" y2="108.9"/>
							
								<rect x="605.3" y="95.6" transform="matrix(0.3818 -0.9243 0.9243 0.3818 265.9962 632.0384)" class="st1" width="0.3" height="43.2"/>
						</g>
					</g>
					<g>
						<g>
							<line class="st1" x1="658.4" y1="53.7" x2="671" y2="39.6"/>
							<polygon class="st1" points="658.5,53.7 658.4,53.6 671,39.6 671.1,39.7 							"/>
						</g>
						<g>
							<line class="st1" x1="658.4" y1="53.7" x2="592.4" y2="54.5"/>
							<polygon class="st1" points="658.4,53.8 592.4,54.7 592.4,54.3 658.4,53.5 							"/>
						</g>
						<g>
							<line class="st1" x1="658.4" y1="53.7" x2="606.5" y2="55"/>
							
								<rect x="606.5" y="54.2" transform="matrix(0.9997 -2.449956e-002 2.449956e-002 0.9997 -1.1409 15.5111)" class="st1" width="51.9" height="0.3"/>
						</g>
					</g>
					<g>
						<g>
							<line class="st1" x1="653.8" y1="7" x2="658.4" y2="53.7"/>
							<polygon class="st1" points="658.5,53.7 658.3,53.7 653.7,7 653.9,7 							"/>
						</g>
						<g>
							<line class="st1" x1="653.8" y1="7" x2="671" y2="39.6"/>
							
								<rect x="662.3" y="4.9" transform="matrix(0.8851 -0.4655 0.4655 0.8851 65.2813 311.002)" class="st1" width="0.2" height="36.9"/>
						</g>
						<g>
							<line class="st1" x1="653.8" y1="7" x2="647.2" y2="-29.5"/>
							<polygon class="st1" points="653.9,7 653.7,7 647.1,-29.5 647.3,-29.6 							"/>
						</g>
						<g>
							<line class="st1" x1="653.8" y1="7" x2="647.2" y2="-29.5"/>
							<polygon class="st1" points="653.9,7 653.7,7 647.1,-29.5 647.3,-29.6 							"/>
						</g>
						<g>
							<line class="st1" x1="653.8" y1="7" x2="679.8" y2="-30.6"/>
							<polygon class="st1" points="653.9,7.1 653.7,6.9 679.7,-30.6 679.9,-30.5 							"/>
						</g>
						<g>
							<line class="st1" x1="653.8" y1="7" x2="647.1" y2="-27"/>
							<polygon class="st1" points="653.9,7 653.7,7 647,-27 647.2,-27.1 							"/>
						</g>
						<g>
							<line class="st1" x1="653.8" y1="7" x2="615.4" y2="-25.8"/>
							
								<rect x="634.5" y="-34.7" transform="matrix(0.6496 -0.7603 0.7603 0.6496 229.5204 479.1927)" class="st1" width="0.3" height="50.5"/>
						</g>
						<g>
							<line class="st1" x1="653.8" y1="7" x2="606.5" y2="55"/>
							
								<rect x="596.5" y="30.8" transform="matrix(0.7032 -0.711 0.711 0.7032 165.0318 457.26)" class="st1" width="67.4" height="0.3"/>
						</g>
					</g>
					<g>
						<g>
							<line class="st1" x1="604.8" y1="13" x2="653.8" y2="7"/>
							
								<rect x="604.6" y="9.9" transform="matrix(0.9925 -0.122 0.122 0.9925 3.4814 76.8775)" class="st1" width="49.4" height="0.3"/>
						</g>
						<g>
							<line class="st1" x1="604.8" y1="13" x2="658.4" y2="53.7"/>
							<polygon class="st1" points="658.3,53.8 604.7,13.2 604.9,12.9 658.5,53.5 							"/>
						</g>
						<g>
							<line class="st1" x1="604.8" y1="13" x2="592.4" y2="54.5"/>
							<polygon class="st1" points="592.6,54.5 592.3,54.5 604.6,13 604.9,13.1 							"/>
						</g>
						<g>
							<line class="st1" x1="604.8" y1="13" x2="647.2" y2="-29.5"/>
							
								<rect x="595.9" y="-8.4" transform="matrix(0.7065 -0.7078 0.7078 0.7065 189.594 440.6185)" class="st1" width="60.1" height="0.3"/>
						</g>
						<g>
							<line class="st1" x1="604.8" y1="13" x2="647.2" y2="-29.5"/>
							
								<rect x="595.9" y="-8.4" transform="matrix(0.7065 -0.7078 0.7078 0.7065 189.594 440.6185)" class="st1" width="60.1" height="0.3"/>
						</g>
						<g>
							<line class="st1" x1="604.8" y1="13" x2="553.1" y2="37.7"/>
							<polygon class="st1" points="604.8,13.2 553.2,37.8 553,37.5 604.7,12.9 							"/>
						</g>
						<g>
							<line class="st1" x1="604.8" y1="13" x2="647.1" y2="-27"/>
							<polygon class="st1" points="647.2,-26.9 604.9,13.1 604.7,12.9 647,-27.2 							"/>
						</g>
						<g>
							<line class="st1" x1="604.8" y1="13" x2="537.5" y2="21.1"/>
							
								<rect x="537.2" y="16.9" transform="matrix(0.9929 -0.1193 0.1193 0.9929 2.0425 68.2706)" class="st1" width="67.8" height="0.3"/>
						</g>
						<g>
							<line class="st1" x1="604.8" y1="13" x2="615.4" y2="-25.8"/>
							<polygon class="st1" points="604.9,13.1 604.6,13 615.3,-25.8 615.5,-25.8 							"/>
						</g>
						<g>
							<line class="st1" x1="604.8" y1="13" x2="606.5" y2="55"/>
							<polygon class="st1" points="606.6,54.9 606.4,55 604.6,13 604.9,13 							"/>
						</g>
					</g>
					<g>
						<g>
							<line class="st1" x1="425.9" y1="250.4" x2="423.8" y2="263.1"/>
							
								<rect x="418.4" y="256.7" transform="matrix(0.1649 -0.9863 0.9863 0.1649 101.5639 633.4418)" class="st1" width="12.8" height="0.1"/>
						</g>
						<g>
							<line class="st1" x1="425.9" y1="250.4" x2="481.1" y2="219.6"/>
							<polygon class="st1" points="481.2,219.8 426,250.6 425.8,250.3 481,219.5 							"/>
						</g>
						<g>
							<line class="st1" x1="425.9" y1="250.4" x2="481.1" y2="219.6"/>
							<polygon class="st1" points="481.2,219.8 426,250.6 425.8,250.3 481,219.5 							"/>
						</g>
						<g>
							<line class="st1" x1="425.9" y1="250.4" x2="398.3" y2="288.1"/>
							<polygon class="st1" points="398.4,288.2 398.2,288 425.8,250.4 426,250.5 							"/>
						</g>
					</g>
					<g>
						<g>
							<line class="st1" x1="462.4" y1="274.7" x2="425.9" y2="250.4"/>
							
								<rect x="444" y="240.7" transform="matrix(0.5534 -0.8329 0.8329 0.5534 -20.3345 487.1782)" class="st1" width="0.3" height="43.8"/>
						</g>
						<g>
							<line class="st1" x1="462.4" y1="274.7" x2="423.8" y2="263.1"/>
							<polygon class="st1" points="462.3,274.8 423.7,263.2 423.8,262.9 462.4,274.6 							"/>
						</g>
						<g>
							<line class="st1" x1="462.4" y1="274.7" x2="481.1" y2="219.6"/>
							
								<rect x="442.7" y="247" transform="matrix(0.323 -0.9464 0.9464 0.323 85.482 613.7841)" class="st1" width="58.2" height="0.3"/>
						</g>
						<g>
							<line class="st1" x1="462.4" y1="274.7" x2="481.1" y2="219.6"/>
							
								<rect x="442.7" y="247" transform="matrix(0.323 -0.9464 0.9464 0.323 85.482 613.7841)" class="st1" width="58.2" height="0.3"/>
						</g>
						<g>
							<line class="st1" x1="462.4" y1="274.7" x2="398.3" y2="288.1"/>
							<polygon class="st1" points="462.4,274.8 398.4,288.3 398.3,287.9 462.3,274.5 							"/>
						</g>
					</g>
					<g>
						<g>
							<line class="st1" x1="429.7" y1="214.9" x2="462.4" y2="274.7"/>
							<polygon class="st1" points="462.5,274.6 462.2,274.8 429.5,215 429.8,214.9 							"/>
						</g>
						<g>
							<line class="st1" x1="429.7" y1="214.9" x2="425.9" y2="250.4"/>
							<polygon class="st1" points="426,250.4 425.8,250.4 429.5,214.9 429.8,214.9 							"/>
						</g>
						<g>
							<line class="st1" x1="429.7" y1="214.9" x2="423.8" y2="263.1"/>
							<polygon class="st1" points="423.9,263.1 423.6,263 429.5,214.9 429.8,215 							"/>
						</g>
						<g>
							<line class="st1" x1="429.7" y1="214.9" x2="481.1" y2="219.6"/>
							<polygon class="st1" points="481.1,219.8 429.6,215.1 429.7,214.8 481.1,219.5 							"/>
						</g>
						<g>
							<line class="st1" x1="429.7" y1="214.9" x2="481.1" y2="219.6"/>
							<polygon class="st1" points="481.1,219.8 429.6,215.1 429.7,214.8 481.1,219.5 							"/>
						</g>
						<g>
							<line class="st1" x1="429.7" y1="214.9" x2="449.7" y2="181"/>
							<polygon class="st1" points="429.8,215 429.5,214.9 449.6,180.9 449.8,181 							"/>
						</g>
						<g>
							<line class="st1" x1="429.7" y1="214.9" x2="464.8" y2="179.2"/>
							
								<rect x="422.2" y="196.9" transform="matrix(0.7003 -0.7139 0.7139 0.7003 -6.6093 378.349)" class="st1" width="50.2" height="0.3"/>
						</g>
						<g>
							<line class="st1" x1="429.7" y1="214.9" x2="481.4" y2="191.9"/>
							<polygon class="st1" points="481.5,192 429.7,215.1 429.6,214.8 481.4,191.7 							"/>
						</g>
						<g>
							<line class="st1" x1="429.7" y1="214.9" x2="481.4" y2="191.9"/>
							<polygon class="st1" points="481.5,192 429.7,215.1 429.6,214.8 481.4,191.7 							"/>
						</g>
					</g>
					<g>
						<g>
							<line class="st1" x1="489.7" y1="83.1" x2="444.8" y2="129.6"/>
							
								<rect x="434.9" y="106.2" transform="matrix(0.6942 -0.7198 0.7198 0.6942 66.3108 368.8449)" class="st1" width="64.7" height="0.3"/>
						</g>
						<g>
							<line class="st1" x1="489.7" y1="83.1" x2="495.7" y2="124.1"/>
							<polygon class="st1" points="495.8,124.1 495.6,124.1 489.6,83.1 489.8,83.1 							"/>
						</g>
						<g>
							<line class="st1" x1="489.7" y1="83.1" x2="530" y2="124.5"/>
							<polygon class="st1" points="530.1,124.4 529.9,124.6 489.6,83.2 489.8,83 							"/>
						</g>
					</g>
					<g>
						<g>
							<line class="st1" x1="523.6" y1="46.5" x2="489.7" y2="83.1"/>
							<polygon class="st1" points="489.8,83.2 489.6,83 523.5,46.4 523.7,46.6 							"/>
						</g>
						<g>
							<line class="st1" x1="523.6" y1="46.5" x2="592.4" y2="54.5"/>
							
								<rect x="557.8" y="15.9" transform="matrix(0.1153 -0.9933 0.9933 0.1153 443.5167 598.9766)" class="st1" width="0.3" height="69.3"/>
						</g>
						<g>
							<line class="st1" x1="523.6" y1="46.5" x2="562.6" y2="74.9"/>
							<polygon class="st1" points="562.5,75 523.5,46.6 523.7,46.4 562.7,74.8 							"/>
						</g>
						<g>
							<line class="st1" x1="523.6" y1="46.5" x2="553.1" y2="37.7"/>
							<polygon class="st1" points="553.1,37.8 523.6,46.6 523.6,46.4 553.1,37.6 							"/>
						</g>
						<g>
							<line class="st1" x1="523.6" y1="46.5" x2="537.5" y2="21.1"/>
							<polygon class="st1" points="523.7,46.6 523.5,46.5 537.4,21.1 537.6,21.2 							"/>
						</g>
					</g>
					<g>
						<g>
							<line class="st1" x1="528.9" y1="86.3" x2="523.6" y2="46.5"/>
							<polygon class="st1" points="529,86.3 528.8,86.3 523.5,46.5 523.7,46.5 							"/>
						</g>
						<g>
							<line class="st1" x1="528.9" y1="86.3" x2="489.7" y2="83.1"/>
							<polygon class="st1" points="528.9,86.4 489.7,83.2 489.7,83 528.9,86.2 							"/>
						</g>
						<g>
							<line class="st1" x1="528.9" y1="86.3" x2="562.6" y2="74.9"/>
							<polygon class="st1" points="562.6,75 528.9,86.4 528.9,86.2 562.5,74.8 							"/>
						</g>
						<g>
							<line class="st1" x1="528.9" y1="86.3" x2="553.1" y2="37.7"/>
							<polygon class="st1" points="529,86.3 528.8,86.2 553,37.6 553.2,37.7 							"/>
						</g>
						<g>
							<line class="st1" x1="528.9" y1="86.3" x2="585.5" y2="108.9"/>
							<polygon class="st1" points="585.4,109.1 528.8,86.4 529,86.1 585.6,108.8 							"/>
						</g>
						<g>
							<line class="st1" x1="528.9" y1="86.3" x2="537.5" y2="21.1"/>
							<polygon class="st1" points="529.1,86.3 528.7,86.3 537.3,21.1 537.6,21.1 							"/>
						</g>
						<g>
							<line class="st1" x1="528.9" y1="86.3" x2="495.7" y2="124.1"/>
							
								<rect x="487.2" y="105" transform="matrix(0.6594 -0.7518 0.7518 0.6594 95.4062 420.9596)" class="st1" width="50.3" height="0.3"/>
						</g>
						<g>
							<line class="st1" x1="528.9" y1="86.3" x2="530" y2="124.5"/>
							<polygon class="st1" points="530.1,124.5 529.9,124.5 528.8,86.3 529,86.3 							"/>
						</g>
						<g>
							<line class="st1" x1="528.9" y1="86.3" x2="531.4" y2="149.6"/>
							<polygon class="st1" points="531.5,149.6 531.2,149.6 528.7,86.3 529.1,86.3 							"/>
						</g>
					</g>
					<g>
						<g>
							<line class="st1" x1="627.7" y1="83.5" x2="658.4" y2="53.7"/>
							<polygon class="st1" points="658.5,53.8 627.8,83.6 627.6,83.4 658.3,53.6 							"/>
						</g>
						<g>
							<line class="st1" x1="627.7" y1="83.5" x2="625.4" y2="125.4"/>
							
								<rect x="605.6" y="104.3" transform="matrix(5.532221e-002 -0.9985 0.9985 5.532221e-002 487.6083 724.3043)" class="st1" width="42" height="0.3"/>
						</g>
						<g>
							<line class="st1" x1="627.7" y1="83.5" x2="671" y2="39.6"/>
							
								<rect x="618.6" y="61.4" transform="matrix(0.7022 -0.712 0.712 0.7022 149.5651 480.6829)" class="st1" width="61.6" height="0.3"/>
						</g>
						<g>
							<line class="st1" x1="627.7" y1="83.5" x2="592.4" y2="54.5"/>
							<polygon class="st1" points="627.7,83.6 592.4,54.6 592.5,54.4 627.8,83.4 							"/>
						</g>
						<g>
							<line class="st1" x1="627.7" y1="83.5" x2="562.6" y2="74.9"/>
							<polygon class="st1" points="627.7,83.7 562.6,75.1 562.6,74.7 627.8,83.3 							"/>
						</g>
						<g>
							<line class="st1" x1="627.7" y1="83.5" x2="585.5" y2="108.9"/>
							<polygon class="st1" points="627.8,83.6 585.6,109.1 585.4,108.8 627.7,83.4 							"/>
						</g>
						<g>
							<line class="st1" x1="627.7" y1="83.5" x2="606.5" y2="55"/>
							<polygon class="st1" points="627.8,83.4 627.6,83.6 606.4,55 606.6,54.9 							"/>
						</g>
					</g>
					<g>
						<g>
							<line class="st1" x1="686.8" y1="2.5" x2="653.8" y2="7"/>
							<polygon class="st1" points="686.8,2.7 653.8,7.1 653.8,6.9 686.8,2.4 							"/>
						</g>
						<g>
							<line class="st1" x1="686.8" y1="2.5" x2="658.4" y2="53.7"/>
							<polygon class="st1" points="658.5,53.8 658.3,53.6 686.7,2.5 686.9,2.6 							"/>
						</g>
						<g>
							<line class="st1" x1="686.8" y1="2.5" x2="671" y2="39.6"/>
							
								<rect x="658.8" y="21" transform="matrix(0.3938 -0.9192 0.9192 0.3938 392.161 636.8173)" class="st1" width="40.3" height="0.2"/>
						</g>
						<g>
							<line class="st1" x1="686.8" y1="2.5" x2="647.2" y2="-29.5"/>
							<polygon class="st1" points="686.7,2.7 647.1,-29.4 647.3,-29.7 686.9,2.4 							"/>
						</g>
						<g>
							<line class="st1" x1="686.8" y1="2.5" x2="647.2" y2="-29.5"/>
							<polygon class="st1" points="686.7,2.7 647.1,-29.4 647.3,-29.7 686.9,2.4 							"/>
						</g>
						<g>
							<line class="st1" x1="686.8" y1="2.5" x2="679.8" y2="-30.6"/>
							<polygon class="st1" points="686.9,2.5 686.7,2.6 679.7,-30.5 679.9,-30.6 							"/>
						</g>
						<g>
							<line class="st1" x1="686.8" y1="2.5" x2="647.1" y2="-27"/>
							<polygon class="st1" points="686.7,2.7 647,-26.9 647.2,-27.2 686.9,2.4 							"/>
						</g>
					</g>
					<g>
						<g>
							<line class="st1" x1="721.6" y1="-74.3" x2="679.8" y2="-30.6"/>
							<polygon class="st1" points="680,-30.4 679.7,-30.7 721.5,-74.4 721.7,-74.2 							"/>
						</g>
					</g>
					<g>
						<g>
							<line class="st1" x1="569.6" y1="-6.3" x2="604.8" y2="13"/>
							<polygon class="st1" points="604.7,13.1 569.5,-6.2 569.7,-6.4 604.8,12.9 							"/>
						</g>
						<g>
							<line class="st1" x1="569.6" y1="-6.3" x2="592.4" y2="54.5"/>
							
								<rect x="580.9" y="-8.4" transform="matrix(0.9367 -0.3501 0.3501 0.9367 28.3438 204.9587)" class="st1" width="0.3" height="65"/>
						</g>
						<g>
							<line class="st1" x1="569.6" y1="-6.3" x2="553.1" y2="37.7"/>
							<polygon class="st1" points="553.2,37.7 553,37.6 569.5,-6.4 569.7,-6.3 							"/>
						</g>
						<g>
							<line class="st1" x1="569.6" y1="-6.3" x2="537.5" y2="21.1"/>
							<polygon class="st1" points="569.7,-6.2 537.6,21.2 537.4,21 569.5,-6.4 							"/>
						</g>
						<g>
							<line class="st1" x1="569.6" y1="-6.3" x2="615.4" y2="-25.8"/>
							
								<rect x="567.6" y="-16.2" transform="matrix(0.9202 -0.3913 0.3913 0.9202 53.5411 230.5916)" class="st1" width="49.8" height="0.3"/>
						</g>
					</g>
					<g>
						<g>
							<line class="st1" x1="681.1" y1="-66.2" x2="721.6" y2="-74.3"/>
							<polygon class="st1" points="721.6,-74.2 681.1,-66 681.1,-66.3 721.5,-74.4 							"/>
						</g>
						<g>
							<line class="st1" x1="681.1" y1="-66.2" x2="686.8" y2="2.5"/>
							
								<rect x="683.8" y="-66.3" transform="matrix(0.9966 -8.272109e-002 8.272109e-002 0.9966 4.9752 56.4676)" class="st1" width="0.3" height="68.9"/>
						</g>
						<g>
							<line class="st1" x1="681.1" y1="-66.2" x2="647.2" y2="-29.5"/>
							<polygon class="st1" points="647.3,-29.5 647.1,-29.6 681,-66.3 681.2,-66.1 							"/>
						</g>
						<g>
							<line class="st1" x1="681.1" y1="-66.2" x2="647.2" y2="-29.5"/>
							<polygon class="st1" points="647.3,-29.5 647.1,-29.6 681,-66.3 681.2,-66.1 							"/>
						</g>
						<g>
							<line class="st1" x1="681.1" y1="-66.2" x2="679.8" y2="-30.6"/>
							<polygon class="st1" points="680,-30.5 679.7,-30.6 681,-66.2 681.2,-66.2 							"/>
						</g>
						<g>
							<line class="st1" x1="681.1" y1="-66.2" x2="647.1" y2="-27"/>
							
								<rect x="638.2" y="-46.7" transform="matrix(0.6554 -0.7553 0.7553 0.6554 264.034 485.5092)" class="st1" width="51.8" height="0.3"/>
						</g>
					</g>
					<g>
						<g>
							<line class="st1" x1="482.7" y1="251.9" x2="429.7" y2="214.9"/>
							
								<rect x="456" y="201.1" transform="matrix(0.5715 -0.8206 0.8206 0.5715 3.9192 474.3342)" class="st1" width="0.3" height="64.7"/>
						</g>
						<g>
							<line class="st1" x1="482.7" y1="251.9" x2="462.4" y2="274.7"/>
							<polygon class="st1" points="462.5,274.7 462.3,274.6 482.6,251.8 482.8,252 							"/>
						</g>
						<g>
							<line class="st1" x1="482.7" y1="251.9" x2="425.9" y2="250.4"/>
							
								<rect x="454.2" y="222.7" transform="matrix(2.566212e-002 -0.9997 0.9997 2.566212e-002 191.5656 698.8692)" class="st1" width="0.3" height="56.8"/>
						</g>
						<g>
							<line class="st1" x1="482.7" y1="251.9" x2="527.6" y2="220"/>
							<polygon class="st1" points="527.6,220.1 482.8,252 482.6,251.8 527.5,219.9 							"/>
						</g>
						<g>
							<line class="st1" x1="482.7" y1="251.9" x2="423.8" y2="263.1"/>
							
								<rect x="423.2" y="257.3" transform="matrix(0.9825 -0.1862 0.1862 0.9825 -40.0169 88.9)" class="st1" width="60" height="0.3"/>
						</g>
						<g>
							<line class="st1" x1="482.7" y1="251.9" x2="481.1" y2="219.6"/>
							
								<rect x="481.8" y="219.6" transform="matrix(0.999 -4.549708e-002 4.549708e-002 0.999 -10.2271 22.1695)" class="st1" width="0.2" height="32.3"/>
						</g>
						<g>
							<line class="st1" x1="482.7" y1="251.9" x2="481.1" y2="219.6"/>
							
								<rect x="481.8" y="219.6" transform="matrix(0.999 -4.549708e-002 4.549708e-002 0.999 -10.2271 22.1695)" class="st1" width="0.2" height="32.3"/>
						</g>
						<g>
							<line class="st1" x1="482.7" y1="251.9" x2="516.2" y2="222.8"/>
							
								<rect x="477.3" y="237.2" transform="matrix(0.7552 -0.6555 0.6555 0.7552 -33.2968 385.5161)" class="st1" width="44.4" height="0.3"/>
						</g>
						<g>
							<line class="st1" x1="482.7" y1="251.9" x2="481.4" y2="191.9"/>
							<polygon class="st1" points="482.9,251.9 482.6,251.9 481.3,191.9 481.6,191.9 							"/>
						</g>
						<g>
							<line class="st1" x1="482.7" y1="251.9" x2="481.4" y2="191.9"/>
							<polygon class="st1" points="482.9,251.9 482.6,251.9 481.3,191.9 481.6,191.9 							"/>
						</g>
					</g>
				</g>
				<ellipse transform="matrix(0.7152 -0.6989 0.6989 0.7152 3.0119 391.1325)" class="st1" cx="481.4" cy="191.9" rx="1" ry="1"/>
				<ellipse transform="matrix(0.7152 -0.6989 0.6989 0.7152 7.1796 375.9266)" class="st1" cx="464.8" cy="179.2" rx="1" ry="1"/>
				<ellipse transform="matrix(0.7152 -0.6989 0.6989 0.7152 3.0119 391.1325)" class="st1" cx="481.4" cy="191.9" rx="1" ry="1"/>
				<ellipse transform="matrix(0.7152 -0.6989 0.6989 0.7152 7.1796 375.9266)" class="st1" cx="464.8" cy="179.2" rx="1" ry="1"/>
				<ellipse transform="matrix(0.7152 -0.6989 0.6989 0.7152 7.1796 375.9266)" class="st1" cx="464.8" cy="179.2" rx="1" ry="1"/>
				<ellipse transform="matrix(0.7152 -0.6989 0.6989 0.7152 -8.6728 424.2767)" class="st1" cx="516.2" cy="222.8" rx="1" ry="1"/>
				<ellipse transform="matrix(0.7152 -0.6989 0.6989 0.7152 3.0119 391.1325)" class="st1" cx="481.4" cy="191.9" rx="1" ry="1"/>
				<ellipse transform="matrix(0.7152 -0.6989 0.6989 0.7152 -8.6728 424.2767)" class="st1" cx="516.2" cy="222.8" rx="1" ry="1"/>
				<ellipse transform="matrix(0.7152 -0.6989 0.6989 0.7152 3.0119 391.1325)" class="st1" cx="481.4" cy="191.9" rx="1" ry="1"/>
				<ellipse transform="matrix(0.7152 -0.6989 0.6989 0.7152 -8.6728 424.2767)" class="st1" cx="516.2" cy="222.8" rx="1" ry="1"/>
				<ellipse transform="matrix(0.7152 -0.6989 0.6989 0.7152 3.0119 391.1325)" class="st1" cx="481.4" cy="191.9" rx="1" ry="1"/>
				<ellipse transform="matrix(0.7152 -0.6989 0.6989 0.7152 46.7618 414.0167)" class="st1" cx="531.4" cy="149.6" rx="1" ry="1"/>
				<ellipse transform="matrix(0.7152 -0.6989 0.6989 0.7152 3.0119 391.1325)" class="st1" cx="481.4" cy="191.9" rx="1" ry="1"/>
				<ellipse transform="matrix(0.7152 -0.6989 0.6989 0.7152 46.7618 414.0167)" class="st1" cx="531.4" cy="149.6" rx="1" ry="1"/>
				<ellipse transform="matrix(0.7152 -0.6989 0.6989 0.7152 46.7618 414.0167)" class="st1" cx="531.4" cy="149.6" rx="1" ry="1"/>
				<ellipse transform="matrix(0.7152 -0.6989 0.6989 0.7152 63.9384 405.9172)" class="st1" cx="530" cy="124.5" rx="1" ry="1"/>
				<ellipse transform="matrix(0.7152 -0.6989 0.6989 0.7152 63.9384 405.9172)" class="st1" cx="530" cy="124.5" rx="1" ry="1"/>
				<ellipse transform="matrix(0.7152 -0.6989 0.6989 0.7152 54.4653 381.8232)" class="st1" cx="495.7" cy="124.1" rx="1" ry="1"/>
				<ellipse transform="matrix(0.7152 -0.6989 0.6989 0.7152 46.7618 414.0167)" class="st1" cx="531.4" cy="149.6" rx="1" ry="1"/>
				<ellipse transform="matrix(0.7152 -0.6989 0.6989 0.7152 54.4653 381.8232)" class="st1" cx="495.7" cy="124.1" rx="1" ry="1"/>
				<ellipse transform="matrix(0.7152 -0.6989 0.6989 0.7152 7.1796 375.9266)" class="st1" cx="464.8" cy="179.2" rx="1" ry="1"/>
				<ellipse transform="matrix(0.7152 -0.6989 0.6989 0.7152 54.4653 381.8232)" class="st1" cx="495.7" cy="124.1" rx="1" ry="1"/>
				<ellipse transform="matrix(0.7152 -0.6989 0.6989 0.7152 3.0119 391.1325)" class="st1" cx="481.4" cy="191.9" rx="1" ry="1"/>
				<ellipse transform="matrix(0.7152 -0.6989 0.6989 0.7152 54.4653 381.8232)" class="st1" cx="495.7" cy="124.1" rx="1" ry="1"/>
				<ellipse transform="matrix(0.7152 -0.6989 0.6989 0.7152 3.0119 391.1325)" class="st1" cx="481.4" cy="191.9" rx="1" ry="1"/>
				<ellipse transform="matrix(0.7152 -0.6989 0.6989 0.7152 54.4653 381.8232)" class="st1" cx="495.7" cy="124.1" rx="1" ry="1"/>
				<ellipse transform="matrix(0.7152 -0.6989 0.6989 0.7152 7.1796 375.9266)" class="st1" cx="464.8" cy="179.2" rx="1" ry="1"/>
				<ellipse transform="matrix(0.7152 -0.6989 0.6989 0.7152 1.6076 365.8726)" class="st1" cx="449.7" cy="181" rx="1" ry="1"/>
				<ellipse transform="matrix(0.7152 -0.6989 0.6989 0.7152 3.0119 391.1325)" class="st1" cx="481.4" cy="191.9" rx="1" ry="1"/>
				<ellipse transform="matrix(0.7152 -0.6989 0.6989 0.7152 1.6076 365.8726)" class="st1" cx="449.7" cy="181" rx="1" ry="1"/>
				<ellipse transform="matrix(0.7152 -0.6989 0.6989 0.7152 3.0119 391.1325)" class="st1" cx="481.4" cy="191.9" rx="1" ry="1"/>
				<ellipse transform="matrix(0.7152 -0.6989 0.6989 0.7152 1.6076 365.8726)" class="st1" cx="449.7" cy="181" rx="1" ry="1"/>
				
					<ellipse transform="matrix(0.7152 -0.6989 0.6989 0.7152 -115.2117 337.4504)" class="st1" cx="356.4" cy="310.1" rx="1" ry="1"/>
				
					<ellipse transform="matrix(0.7152 -0.6989 0.6989 0.7152 -87.9195 360.4661)" class="st1" cx="398.3" cy="288.1" rx="1" ry="1"/>
				<ellipse transform="matrix(0.7152 -0.6989 0.6989 0.7152 1.6076 365.8726)" class="st1" cx="449.7" cy="181" rx="1" ry="1"/>
				<ellipse transform="matrix(0.7152 -0.6989 0.6989 0.7152 -16.4724 398.817)" class="st1" cx="481.1" cy="219.6" rx="1" ry="1"/>
				<ellipse transform="matrix(0.7152 -0.6989 0.6989 0.7152 -8.6728 424.2767)" class="st1" cx="516.2" cy="222.8" rx="1" ry="1"/>
				<ellipse transform="matrix(0.7152 -0.6989 0.6989 0.7152 -16.4724 398.817)" class="st1" cx="481.1" cy="219.6" rx="1" ry="1"/>
				<ellipse transform="matrix(0.7152 -0.6989 0.6989 0.7152 7.1796 375.9266)" class="st1" cx="464.8" cy="179.2" rx="1" ry="1"/>
				<ellipse transform="matrix(0.7152 -0.6989 0.6989 0.7152 -16.4724 398.817)" class="st1" cx="481.1" cy="219.6" rx="1" ry="1"/>
				<ellipse transform="matrix(0.7152 -0.6989 0.6989 0.7152 3.0119 391.1325)" class="st1" cx="481.4" cy="191.9" rx="1" ry="1"/>
				<ellipse transform="matrix(0.7152 -0.6989 0.6989 0.7152 -16.4724 398.817)" class="st1" cx="481.1" cy="219.6" rx="1" ry="1"/>
				<ellipse transform="matrix(0.7152 -0.6989 0.6989 0.7152 3.0119 391.1325)" class="st1" cx="481.4" cy="191.9" rx="1" ry="1"/>
				<ellipse transform="matrix(0.7152 -0.6989 0.6989 0.7152 -16.4724 398.817)" class="st1" cx="481.1" cy="219.6" rx="1" ry="1"/>
				<ellipse transform="matrix(0.7152 -0.6989 0.6989 0.7152 1.6076 365.8726)" class="st1" cx="449.7" cy="181" rx="1" ry="1"/>
				<ellipse transform="matrix(0.7152 -0.6989 0.6989 0.7152 -16.4724 398.817)" class="st1" cx="481.1" cy="219.6" rx="1" ry="1"/>
				<ellipse transform="matrix(0.7152 -0.6989 0.6989 0.7152 -8.6728 424.2767)" class="st1" cx="516.2" cy="222.8" rx="1" ry="1"/>
				<ellipse transform="matrix(0.7152 -0.6989 0.6989 0.7152 -16.4724 398.817)" class="st1" cx="481.1" cy="219.6" rx="1" ry="1"/>
				<ellipse transform="matrix(0.7152 -0.6989 0.6989 0.7152 7.1796 375.9266)" class="st1" cx="464.8" cy="179.2" rx="1" ry="1"/>
				<ellipse transform="matrix(0.7152 -0.6989 0.6989 0.7152 -16.4724 398.817)" class="st1" cx="481.1" cy="219.6" rx="1" ry="1"/>
				<ellipse transform="matrix(0.7152 -0.6989 0.6989 0.7152 3.0119 391.1325)" class="st1" cx="481.4" cy="191.9" rx="1" ry="1"/>
				<ellipse transform="matrix(0.7152 -0.6989 0.6989 0.7152 -16.4724 398.817)" class="st1" cx="481.1" cy="219.6" rx="1" ry="1"/>
				<ellipse transform="matrix(0.7152 -0.6989 0.6989 0.7152 3.0119 391.1325)" class="st1" cx="481.4" cy="191.9" rx="1" ry="1"/>
				<ellipse transform="matrix(0.7152 -0.6989 0.6989 0.7152 -16.4724 398.817)" class="st1" cx="481.1" cy="219.6" rx="1" ry="1"/>
				
					<ellipse transform="matrix(0.7152 -0.6989 0.6989 0.7152 -87.9195 360.4661)" class="st1" cx="398.3" cy="288.1" rx="1" ry="1"/>
				
					<ellipse transform="matrix(0.7152 -0.6989 0.6989 0.7152 -63.1636 371.1168)" class="st1" cx="423.8" cy="263.1" rx="1" ry="1"/>
				<ellipse transform="matrix(0.7152 -0.6989 0.6989 0.7152 54.4653 381.8232)" class="st1" cx="495.7" cy="124.1" rx="1" ry="1"/>
				<ellipse transform="matrix(0.7152 -0.6989 0.6989 0.7152 40.2865 428.8071)" class="st1" cx="546.3" cy="165" rx="1" ry="1"/>
				<ellipse transform="matrix(0.7152 -0.6989 0.6989 0.7152 63.9384 405.9172)" class="st1" cx="530" cy="124.5" rx="1" ry="1"/>
				<ellipse transform="matrix(0.7152 -0.6989 0.6989 0.7152 40.2865 428.8071)" class="st1" cx="546.3" cy="165" rx="1" ry="1"/>
				<ellipse transform="matrix(0.7152 -0.6989 0.6989 0.7152 46.7618 414.0167)" class="st1" cx="531.4" cy="149.6" rx="1" ry="1"/>
				<ellipse transform="matrix(0.7152 -0.6989 0.6989 0.7152 40.2865 428.8071)" class="st1" cx="546.3" cy="165" rx="1" ry="1"/>
				<ellipse transform="matrix(0.7152 -0.6989 0.6989 0.7152 -8.6728 424.2767)" class="st1" cx="516.2" cy="222.8" rx="1" ry="1"/>
				<ellipse transform="matrix(0.7152 -0.6989 0.6989 0.7152 40.2865 428.8071)" class="st1" cx="546.3" cy="165" rx="1" ry="1"/>
				<ellipse transform="matrix(0.7152 -0.6989 0.6989 0.7152 1.6076 365.8726)" class="st1" cx="449.7" cy="181" rx="1" ry="1"/>
				<ellipse transform="matrix(0.7152 -0.6989 0.6989 0.7152 36.0639 347.7865)" class="st1" cx="444.8" cy="129.6" rx="1" ry="1"/>
				<ellipse transform="matrix(0.7152 -0.6989 0.6989 0.7152 54.4653 381.8232)" class="st1" cx="495.7" cy="124.1" rx="1" ry="1"/>
				<ellipse transform="matrix(0.7152 -0.6989 0.6989 0.7152 36.0639 347.7865)" class="st1" cx="444.8" cy="129.6" rx="1" ry="1"/>
				<ellipse transform="matrix(0.7152 -0.6989 0.6989 0.7152 7.1796 375.9266)" class="st1" cx="464.8" cy="179.2" rx="1" ry="1"/>
				<ellipse transform="matrix(0.7152 -0.6989 0.6989 0.7152 36.0639 347.7865)" class="st1" cx="444.8" cy="129.6" rx="1" ry="1"/>
				
					<ellipse transform="matrix(0.7152 -0.6989 0.6989 0.7152 193.3184 422.7884)" class="st1" cx="615.4" cy="-25.8" rx="1" ry="1"/>
				<ellipse transform="matrix(0.7152 -0.6989 0.6989 0.7152 203.2075 444.5751)" class="st1" cx="647.1" cy="-27" rx="1" ry="1"/>
				<ellipse transform="matrix(0.7152 -0.6989 0.6989 0.7152 134.3307 439.5531)" class="st1" cx="606.5" cy="55" rx="1" ry="1"/>
				<ellipse transform="matrix(0.7152 -0.6989 0.6989 0.7152 90.62 440.2544)" class="st1" cx="585.5" cy="108.9" rx="1" ry="1"/>
				<ellipse transform="matrix(0.7152 -0.6989 0.6989 0.7152 40.2865 428.8071)" class="st1" cx="546.3" cy="165" rx="1" ry="1"/>
				<ellipse transform="matrix(0.7152 -0.6989 0.6989 0.7152 90.62 440.2544)" class="st1" cx="585.5" cy="108.9" rx="1" ry="1"/>
				<ellipse transform="matrix(0.7152 -0.6989 0.6989 0.7152 63.9384 405.9172)" class="st1" cx="530" cy="124.5" rx="1" ry="1"/>
				<ellipse transform="matrix(0.7152 -0.6989 0.6989 0.7152 90.62 440.2544)" class="st1" cx="585.5" cy="108.9" rx="1" ry="1"/>
				<ellipse transform="matrix(0.7152 -0.6989 0.6989 0.7152 46.7618 414.0167)" class="st1" cx="531.4" cy="149.6" rx="1" ry="1"/>
				<ellipse transform="matrix(0.7152 -0.6989 0.6989 0.7152 90.62 440.2544)" class="st1" cx="585.5" cy="108.9" rx="1" ry="1"/>
				<ellipse transform="matrix(0.7152 -0.6989 0.6989 0.7152 138.3223 381.6844)" class="st1" cx="537.5" cy="21.1" rx="1" ry="1"/>
				<ellipse transform="matrix(0.7152 -0.6989 0.6989 0.7152 131.2203 397.3141)" class="st1" cx="553.1" cy="37.7" rx="1" ry="1"/>
				<ellipse transform="matrix(0.7152 -0.6989 0.6989 0.7152 134.3307 439.5531)" class="st1" cx="606.5" cy="55" rx="1" ry="1"/>
				<ellipse transform="matrix(0.7152 -0.6989 0.6989 0.7152 131.2203 397.3141)" class="st1" cx="553.1" cy="37.7" rx="1" ry="1"/>
				<ellipse transform="matrix(0.7152 -0.6989 0.6989 0.7152 203.2075 444.5751)" class="st1" cx="647.1" cy="-27" rx="1" ry="1"/>
				
					<ellipse transform="matrix(0.7152 -0.6989 0.6989 0.7152 214.9843 466.4637)" class="st1" cx="679.8" cy="-30.6" rx="1" ry="1"/>
				
					<ellipse transform="matrix(0.7152 -0.6989 0.6989 0.7152 193.3184 422.7884)" class="st1" cx="615.4" cy="-25.8" rx="1" ry="1"/>
				
					<ellipse transform="matrix(0.7152 -0.6989 0.6989 0.7152 214.9843 466.4637)" class="st1" cx="679.8" cy="-30.6" rx="1" ry="1"/>
				<ellipse transform="matrix(0.7152 -0.6989 0.6989 0.7152 131.2203 397.3141)" class="st1" cx="553.1" cy="37.7" rx="1" ry="1"/>
				<ellipse transform="matrix(0.7152 -0.6989 0.6989 0.7152 107.8741 414.5442)" class="st1" cx="562.6" cy="74.9" rx="1" ry="1"/>
				<ellipse transform="matrix(0.7152 -0.6989 0.6989 0.7152 90.62 440.2544)" class="st1" cx="585.5" cy="108.9" rx="1" ry="1"/>
				<ellipse transform="matrix(0.7152 -0.6989 0.6989 0.7152 107.8741 414.5442)" class="st1" cx="562.6" cy="74.9" rx="1" ry="1"/>
				<ellipse transform="matrix(0.7152 -0.6989 0.6989 0.7152 138.3223 381.6844)" class="st1" cx="537.5" cy="21.1" rx="1" ry="1"/>
				<ellipse transform="matrix(0.7152 -0.6989 0.6989 0.7152 107.8741 414.5442)" class="st1" cx="562.6" cy="74.9" rx="1" ry="1"/>
				<ellipse transform="matrix(0.7152 -0.6989 0.6989 0.7152 134.3307 439.5531)" class="st1" cx="606.5" cy="55" rx="1" ry="1"/>
				<ellipse transform="matrix(0.7152 -0.6989 0.6989 0.7152 107.8741 414.5442)" class="st1" cx="562.6" cy="74.9" rx="1" ry="1"/>
				<ellipse transform="matrix(0.7152 -0.6989 0.6989 0.7152 63.9384 405.9172)" class="st1" cx="530" cy="124.5" rx="1" ry="1"/>
				<ellipse transform="matrix(0.7152 -0.6989 0.6989 0.7152 107.8741 414.5442)" class="st1" cx="562.6" cy="74.9" rx="1" ry="1"/>
				
					<ellipse transform="matrix(0.7152 -0.6989 0.6989 0.7152 214.9843 466.4637)" class="st1" cx="679.8" cy="-30.6" rx="1" ry="1"/>
				
					<ellipse transform="matrix(0.7152 -0.6989 0.6989 0.7152 204.9881 443.9433)" class="st1" cx="647.2" cy="-29.5" rx="1" ry="1"/>
				<ellipse transform="matrix(0.7152 -0.6989 0.6989 0.7152 203.2075 444.5751)" class="st1" cx="647.1" cy="-27" rx="1" ry="1"/>
				
					<ellipse transform="matrix(0.7152 -0.6989 0.6989 0.7152 204.9881 443.9433)" class="st1" cx="647.2" cy="-29.5" rx="1" ry="1"/>
				
					<ellipse transform="matrix(0.7152 -0.6989 0.6989 0.7152 193.3184 422.7884)" class="st1" cx="615.4" cy="-25.8" rx="1" ry="1"/>
				
					<ellipse transform="matrix(0.7152 -0.6989 0.6989 0.7152 204.9881 443.9433)" class="st1" cx="647.2" cy="-29.5" rx="1" ry="1"/>
				
					<ellipse transform="matrix(0.7152 -0.6989 0.6989 0.7152 214.9843 466.4637)" class="st1" cx="679.8" cy="-30.6" rx="1" ry="1"/>
				
					<ellipse transform="matrix(0.7152 -0.6989 0.6989 0.7152 204.9881 443.9433)" class="st1" cx="647.2" cy="-29.5" rx="1" ry="1"/>
				<ellipse transform="matrix(0.7152 -0.6989 0.6989 0.7152 203.2075 444.5751)" class="st1" cx="647.1" cy="-27" rx="1" ry="1"/>
				
					<ellipse transform="matrix(0.7152 -0.6989 0.6989 0.7152 204.9881 443.9433)" class="st1" cx="647.2" cy="-29.5" rx="1" ry="1"/>
				
					<ellipse transform="matrix(0.7152 -0.6989 0.6989 0.7152 193.3184 422.7884)" class="st1" cx="615.4" cy="-25.8" rx="1" ry="1"/>
				
					<ellipse transform="matrix(0.7152 -0.6989 0.6989 0.7152 204.9881 443.9433)" class="st1" cx="647.2" cy="-29.5" rx="1" ry="1"/>
				<ellipse transform="matrix(0.7152 -0.6989 0.6989 0.7152 107.8741 414.5442)" class="st1" cx="562.6" cy="74.9" rx="1" ry="1"/>
				<ellipse transform="matrix(0.7152 -0.6989 0.6989 0.7152 130.6448 429.6008)" class="st1" cx="592.4" cy="54.5" rx="1" ry="1"/>
				<ellipse transform="matrix(0.7152 -0.6989 0.6989 0.7152 131.2203 397.3141)" class="st1" cx="553.1" cy="37.7" rx="1" ry="1"/>
				<ellipse transform="matrix(0.7152 -0.6989 0.6989 0.7152 130.6448 429.6008)" class="st1" cx="592.4" cy="54.5" rx="1" ry="1"/>
				<ellipse transform="matrix(0.7152 -0.6989 0.6989 0.7152 90.62 440.2544)" class="st1" cx="585.5" cy="108.9" rx="1" ry="1"/>
				<ellipse transform="matrix(0.7152 -0.6989 0.6989 0.7152 130.6448 429.6008)" class="st1" cx="592.4" cy="54.5" rx="1" ry="1"/>
				<ellipse transform="matrix(0.7152 -0.6989 0.6989 0.7152 138.3223 381.6844)" class="st1" cx="537.5" cy="21.1" rx="1" ry="1"/>
				<ellipse transform="matrix(0.7152 -0.6989 0.6989 0.7152 130.6448 429.6008)" class="st1" cx="592.4" cy="54.5" rx="1" ry="1"/>
				<ellipse transform="matrix(0.7152 -0.6989 0.6989 0.7152 134.3307 439.5531)" class="st1" cx="606.5" cy="55" rx="1" ry="1"/>
				<ellipse transform="matrix(0.7152 -0.6989 0.6989 0.7152 130.6448 429.6008)" class="st1" cx="592.4" cy="54.5" rx="1" ry="1"/>
				<ellipse transform="matrix(0.7152 -0.6989 0.6989 0.7152 134.3307 439.5531)" class="st1" cx="606.5" cy="55" rx="1" ry="1"/>
				<ellipse transform="matrix(0.7152 -0.6989 0.6989 0.7152 163.4333 480.2809)" class="st1" cx="671" cy="39.6" rx="1" ry="1"/>
				<ellipse transform="matrix(0.7152 -0.6989 0.6989 0.7152 90.62 440.2544)" class="st1" cx="585.5" cy="108.9" rx="1" ry="1"/>
				<ellipse transform="matrix(0.7152 -0.6989 0.6989 0.7152 65.599 458.8494)" class="st1" cx="595.8" cy="148.9" rx="1" ry="1"/>
				<ellipse transform="matrix(0.7152 -0.6989 0.6989 0.7152 40.2865 428.8071)" class="st1" cx="546.3" cy="165" rx="1" ry="1"/>
				<ellipse transform="matrix(0.7152 -0.6989 0.6989 0.7152 65.599 458.8494)" class="st1" cx="595.8" cy="148.9" rx="1" ry="1"/>
				<ellipse transform="matrix(0.7152 -0.6989 0.6989 0.7152 46.7618 414.0167)" class="st1" cx="531.4" cy="149.6" rx="1" ry="1"/>
				<ellipse transform="matrix(0.7152 -0.6989 0.6989 0.7152 65.599 458.8494)" class="st1" cx="595.8" cy="148.9" rx="1" ry="1"/>
				<ellipse transform="matrix(0.7152 -0.6989 0.6989 0.7152 40.2865 428.8071)" class="st1" cx="546.3" cy="165" rx="1" ry="1"/>
				<ellipse transform="matrix(0.7152 -0.6989 0.6989 0.7152 -3.5241 431.3954)" class="st1" cx="527.6" cy="220" rx="1" ry="1"/>
				<ellipse transform="matrix(0.7152 -0.6989 0.6989 0.7152 -16.4724 398.817)" class="st1" cx="481.1" cy="219.6" rx="1" ry="1"/>
				<ellipse transform="matrix(0.7152 -0.6989 0.6989 0.7152 -3.5241 431.3954)" class="st1" cx="527.6" cy="220" rx="1" ry="1"/>
				<ellipse transform="matrix(0.7152 -0.6989 0.6989 0.7152 -16.4724 398.817)" class="st1" cx="481.1" cy="219.6" rx="1" ry="1"/>
				<ellipse transform="matrix(0.7152 -0.6989 0.6989 0.7152 -3.5241 431.3954)" class="st1" cx="527.6" cy="220" rx="1" ry="1"/>
				<ellipse transform="matrix(0.7152 -0.6989 0.6989 0.7152 -8.6728 424.2767)" class="st1" cx="516.2" cy="222.8" rx="1" ry="1"/>
				<ellipse transform="matrix(0.7152 -0.6989 0.6989 0.7152 -3.5241 431.3954)" class="st1" cx="527.6" cy="220" rx="1" ry="1"/>
				<ellipse transform="matrix(0.7152 -0.6989 0.6989 0.7152 3.0119 391.1325)" class="st1" cx="481.4" cy="191.9" rx="1" ry="1"/>
				<ellipse transform="matrix(0.7152 -0.6989 0.6989 0.7152 -3.5241 431.3954)" class="st1" cx="527.6" cy="220" rx="1" ry="1"/>
				<ellipse transform="matrix(0.7152 -0.6989 0.6989 0.7152 3.0119 391.1325)" class="st1" cx="481.4" cy="191.9" rx="1" ry="1"/>
				<ellipse transform="matrix(0.7152 -0.6989 0.6989 0.7152 -3.5241 431.3954)" class="st1" cx="527.6" cy="220" rx="1" ry="1"/>
				<ellipse transform="matrix(0.7152 -0.6989 0.6989 0.7152 65.599 458.8494)" class="st1" cx="595.8" cy="148.9" rx="1" ry="1"/>
				<ellipse transform="matrix(0.7152 -0.6989 0.6989 0.7152 90.4644 472.8546)" class="st1" cx="625.4" cy="125.4" rx="1" ry="1"/>
				<ellipse transform="matrix(0.7152 -0.6989 0.6989 0.7152 90.62 440.2544)" class="st1" cx="585.5" cy="108.9" rx="1" ry="1"/>
				<ellipse transform="matrix(0.7152 -0.6989 0.6989 0.7152 90.4644 472.8546)" class="st1" cx="625.4" cy="125.4" rx="1" ry="1"/>
				<ellipse transform="matrix(0.7152 -0.6989 0.6989 0.7152 163.4333 480.2809)" class="st1" cx="671" cy="39.6" rx="1" ry="1"/>
				<ellipse transform="matrix(0.7152 -0.6989 0.6989 0.7152 150.0089 475.4808)" class="st1" cx="658.4" cy="53.7" rx="1" ry="1"/>
				<ellipse transform="matrix(0.7152 -0.6989 0.6989 0.7152 130.6448 429.6008)" class="st1" cx="592.4" cy="54.5" rx="1" ry="1"/>
				<ellipse transform="matrix(0.7152 -0.6989 0.6989 0.7152 150.0089 475.4808)" class="st1" cx="658.4" cy="53.7" rx="1" ry="1"/>
				<ellipse transform="matrix(0.7152 -0.6989 0.6989 0.7152 134.3307 439.5531)" class="st1" cx="606.5" cy="55" rx="1" ry="1"/>
				<ellipse transform="matrix(0.7152 -0.6989 0.6989 0.7152 150.0089 475.4808)" class="st1" cx="658.4" cy="53.7" rx="1" ry="1"/>
				<ellipse transform="matrix(0.7152 -0.6989 0.6989 0.7152 150.0089 475.4808)" class="st1" cx="658.4" cy="53.7" rx="1" ry="1"/>
				<ellipse transform="matrix(0.7152 -0.6989 0.6989 0.7152 181.3238 458.9723)" class="st1" cx="653.8" cy="7" rx="1" ry="1"/>
				<ellipse transform="matrix(0.7152 -0.6989 0.6989 0.7152 163.4333 480.2809)" class="st1" cx="671" cy="39.6" rx="1" ry="1"/>
				<ellipse transform="matrix(0.7152 -0.6989 0.6989 0.7152 181.3238 458.9723)" class="st1" cx="653.8" cy="7" rx="1" ry="1"/>
				
					<ellipse transform="matrix(0.7152 -0.6989 0.6989 0.7152 204.9881 443.9433)" class="st1" cx="647.2" cy="-29.5" rx="1" ry="1"/>
				<ellipse transform="matrix(0.7152 -0.6989 0.6989 0.7152 181.3238 458.9723)" class="st1" cx="653.8" cy="7" rx="1" ry="1"/>
				
					<ellipse transform="matrix(0.7152 -0.6989 0.6989 0.7152 204.9881 443.9433)" class="st1" cx="647.2" cy="-29.5" rx="1" ry="1"/>
				<ellipse transform="matrix(0.7152 -0.6989 0.6989 0.7152 181.3238 458.9723)" class="st1" cx="653.8" cy="7" rx="1" ry="1"/>
				
					<ellipse transform="matrix(0.7152 -0.6989 0.6989 0.7152 214.9843 466.4637)" class="st1" cx="679.8" cy="-30.6" rx="1" ry="1"/>
				<ellipse transform="matrix(0.7152 -0.6989 0.6989 0.7152 181.3238 458.9723)" class="st1" cx="653.8" cy="7" rx="1" ry="1"/>
				<ellipse transform="matrix(0.7152 -0.6989 0.6989 0.7152 203.2075 444.5751)" class="st1" cx="647.1" cy="-27" rx="1" ry="1"/>
				<ellipse transform="matrix(0.7152 -0.6989 0.6989 0.7152 181.3238 458.9723)" class="st1" cx="653.8" cy="7" rx="1" ry="1"/>
				
					<ellipse transform="matrix(0.7152 -0.6989 0.6989 0.7152 193.3184 422.7884)" class="st1" cx="615.4" cy="-25.8" rx="1" ry="1"/>
				<ellipse transform="matrix(0.7152 -0.6989 0.6989 0.7152 181.3238 458.9723)" class="st1" cx="653.8" cy="7" rx="1" ry="1"/>
				<ellipse transform="matrix(0.7152 -0.6989 0.6989 0.7152 134.3307 439.5531)" class="st1" cx="606.5" cy="55" rx="1" ry="1"/>
				<ellipse transform="matrix(0.7152 -0.6989 0.6989 0.7152 181.3238 458.9723)" class="st1" cx="653.8" cy="7" rx="1" ry="1"/>
				<ellipse transform="matrix(0.7152 -0.6989 0.6989 0.7152 181.3238 458.9723)" class="st1" cx="653.8" cy="7" rx="1" ry="1"/>
				<ellipse transform="matrix(0.7152 -0.6989 0.6989 0.7152 163.1353 426.4026)" class="st1" cx="604.8" cy="13" rx="1" ry="1"/>
				<ellipse transform="matrix(0.7152 -0.6989 0.6989 0.7152 150.0089 475.4808)" class="st1" cx="658.4" cy="53.7" rx="1" ry="1"/>
				<ellipse transform="matrix(0.7152 -0.6989 0.6989 0.7152 163.1353 426.4026)" class="st1" cx="604.8" cy="13" rx="1" ry="1"/>
				<ellipse transform="matrix(0.7152 -0.6989 0.6989 0.7152 130.6448 429.6008)" class="st1" cx="592.4" cy="54.5" rx="1" ry="1"/>
				<ellipse transform="matrix(0.7152 -0.6989 0.6989 0.7152 163.1353 426.4026)" class="st1" cx="604.8" cy="13" rx="1" ry="1"/>
				
					<ellipse transform="matrix(0.7152 -0.6989 0.6989 0.7152 204.9881 443.9433)" class="st1" cx="647.2" cy="-29.5" rx="1" ry="1"/>
				<ellipse transform="matrix(0.7152 -0.6989 0.6989 0.7152 163.1353 426.4026)" class="st1" cx="604.8" cy="13" rx="1" ry="1"/>
				
					<ellipse transform="matrix(0.7152 -0.6989 0.6989 0.7152 204.9881 443.9433)" class="st1" cx="647.2" cy="-29.5" rx="1" ry="1"/>
				<ellipse transform="matrix(0.7152 -0.6989 0.6989 0.7152 163.1353 426.4026)" class="st1" cx="604.8" cy="13" rx="1" ry="1"/>
				<ellipse transform="matrix(0.7152 -0.6989 0.6989 0.7152 131.2203 397.3141)" class="st1" cx="553.1" cy="37.7" rx="1" ry="1"/>
				<ellipse transform="matrix(0.7152 -0.6989 0.6989 0.7152 163.1353 426.4026)" class="st1" cx="604.8" cy="13" rx="1" ry="1"/>
				<ellipse transform="matrix(0.7152 -0.6989 0.6989 0.7152 203.2075 444.5751)" class="st1" cx="647.1" cy="-27" rx="1" ry="1"/>
				<ellipse transform="matrix(0.7152 -0.6989 0.6989 0.7152 163.1353 426.4026)" class="st1" cx="604.8" cy="13" rx="1" ry="1"/>
				<ellipse transform="matrix(0.7152 -0.6989 0.6989 0.7152 138.3223 381.6844)" class="st1" cx="537.5" cy="21.1" rx="1" ry="1"/>
				<ellipse transform="matrix(0.7152 -0.6989 0.6989 0.7152 163.1353 426.4026)" class="st1" cx="604.8" cy="13" rx="1" ry="1"/>
				
					<ellipse transform="matrix(0.7152 -0.6989 0.6989 0.7152 193.3184 422.7884)" class="st1" cx="615.4" cy="-25.8" rx="1" ry="1"/>
				<ellipse transform="matrix(0.7152 -0.6989 0.6989 0.7152 163.1353 426.4026)" class="st1" cx="604.8" cy="13" rx="1" ry="1"/>
				<ellipse transform="matrix(0.7152 -0.6989 0.6989 0.7152 134.3307 439.5531)" class="st1" cx="606.5" cy="55" rx="1" ry="1"/>
				<ellipse transform="matrix(0.7152 -0.6989 0.6989 0.7152 163.1353 426.4026)" class="st1" cx="604.8" cy="13" rx="1" ry="1"/>
				
					<ellipse transform="matrix(0.7152 -0.6989 0.6989 0.7152 -63.1636 371.1168)" class="st1" cx="423.8" cy="263.1" rx="1" ry="1"/>
				
					<ellipse transform="matrix(0.7152 -0.6989 0.6989 0.7152 -53.7337 369.0048)" class="st1" cx="425.9" cy="250.4" rx="1" ry="1"/>
				<ellipse transform="matrix(0.7152 -0.6989 0.6989 0.7152 -16.4724 398.817)" class="st1" cx="481.1" cy="219.6" rx="1" ry="1"/>
				
					<ellipse transform="matrix(0.7152 -0.6989 0.6989 0.7152 -53.7337 369.0048)" class="st1" cx="425.9" cy="250.4" rx="1" ry="1"/>
				<ellipse transform="matrix(0.7152 -0.6989 0.6989 0.7152 -16.4724 398.817)" class="st1" cx="481.1" cy="219.6" rx="1" ry="1"/>
				
					<ellipse transform="matrix(0.7152 -0.6989 0.6989 0.7152 -53.7337 369.0048)" class="st1" cx="425.9" cy="250.4" rx="1" ry="1"/>
				
					<ellipse transform="matrix(0.7152 -0.6989 0.6989 0.7152 -87.9195 360.4661)" class="st1" cx="398.3" cy="288.1" rx="1" ry="1"/>
				
					<ellipse transform="matrix(0.7152 -0.6989 0.6989 0.7152 -53.7337 369.0048)" class="st1" cx="425.9" cy="250.4" rx="1" ry="1"/>
				
					<ellipse transform="matrix(0.7152 -0.6989 0.6989 0.7152 -53.7337 369.0048)" class="st1" cx="425.9" cy="250.4" rx="1" ry="1"/>
				
					<ellipse transform="matrix(0.7152 -0.6989 0.6989 0.7152 -60.2833 401.4059)" class="st1" cx="462.4" cy="274.7" rx="1" ry="1"/>
				
					<ellipse transform="matrix(0.7152 -0.6989 0.6989 0.7152 -63.1636 371.1168)" class="st1" cx="423.8" cy="263.1" rx="1" ry="1"/>
				
					<ellipse transform="matrix(0.7152 -0.6989 0.6989 0.7152 -60.2833 401.4059)" class="st1" cx="462.4" cy="274.7" rx="1" ry="1"/>
				<ellipse transform="matrix(0.7152 -0.6989 0.6989 0.7152 -16.4724 398.817)" class="st1" cx="481.1" cy="219.6" rx="1" ry="1"/>
				
					<ellipse transform="matrix(0.7152 -0.6989 0.6989 0.7152 -60.2833 401.4059)" class="st1" cx="462.4" cy="274.7" rx="1" ry="1"/>
				<ellipse transform="matrix(0.7152 -0.6989 0.6989 0.7152 -16.4724 398.817)" class="st1" cx="481.1" cy="219.6" rx="1" ry="1"/>
				
					<ellipse transform="matrix(0.7152 -0.6989 0.6989 0.7152 -60.2833 401.4059)" class="st1" cx="462.4" cy="274.7" rx="1" ry="1"/>
				
					<ellipse transform="matrix(0.7152 -0.6989 0.6989 0.7152 -87.9195 360.4661)" class="st1" cx="398.3" cy="288.1" rx="1" ry="1"/>
				
					<ellipse transform="matrix(0.7152 -0.6989 0.6989 0.7152 -60.2833 401.4059)" class="st1" cx="462.4" cy="274.7" rx="1" ry="1"/>
				
					<ellipse transform="matrix(0.7152 -0.6989 0.6989 0.7152 -60.2833 401.4059)" class="st1" cx="462.4" cy="274.7" rx="1" ry="1"/>
				
					<ellipse transform="matrix(0.7152 -0.6989 0.6989 0.7152 -27.8539 361.5195)" class="st1" cx="429.7" cy="214.9" rx="1" ry="1"/>
				
					<ellipse transform="matrix(0.7152 -0.6989 0.6989 0.7152 -53.7337 369.0048)" class="st1" cx="425.9" cy="250.4" rx="1" ry="1"/>
				
					<ellipse transform="matrix(0.7152 -0.6989 0.6989 0.7152 -27.8539 361.5195)" class="st1" cx="429.7" cy="214.9" rx="1" ry="1"/>
				
					<ellipse transform="matrix(0.7152 -0.6989 0.6989 0.7152 -63.1636 371.1168)" class="st1" cx="423.8" cy="263.1" rx="1" ry="1"/>
				
					<ellipse transform="matrix(0.7152 -0.6989 0.6989 0.7152 -27.8539 361.5195)" class="st1" cx="429.7" cy="214.9" rx="1" ry="1"/>
				<ellipse transform="matrix(0.7152 -0.6989 0.6989 0.7152 -16.4724 398.817)" class="st1" cx="481.1" cy="219.6" rx="1" ry="1"/>
				
					<ellipse transform="matrix(0.7152 -0.6989 0.6989 0.7152 -27.8539 361.5195)" class="st1" cx="429.7" cy="214.9" rx="1" ry="1"/>
				<ellipse transform="matrix(0.7152 -0.6989 0.6989 0.7152 -16.4724 398.817)" class="st1" cx="481.1" cy="219.6" rx="1" ry="1"/>
				
					<ellipse transform="matrix(0.7152 -0.6989 0.6989 0.7152 -27.8539 361.5195)" class="st1" cx="429.7" cy="214.9" rx="1" ry="1"/>
				<ellipse transform="matrix(0.7152 -0.6989 0.6989 0.7152 1.6076 365.8726)" class="st1" cx="449.7" cy="181" rx="1" ry="1"/>
				
					<ellipse transform="matrix(0.7152 -0.6989 0.6989 0.7152 -27.8539 361.5195)" class="st1" cx="429.7" cy="214.9" rx="1" ry="1"/>
				<ellipse transform="matrix(0.7152 -0.6989 0.6989 0.7152 7.1796 375.9266)" class="st1" cx="464.8" cy="179.2" rx="1" ry="1"/>
				
					<ellipse transform="matrix(0.7152 -0.6989 0.6989 0.7152 -27.8539 361.5195)" class="st1" cx="429.7" cy="214.9" rx="1" ry="1"/>
				<ellipse transform="matrix(0.7152 -0.6989 0.6989 0.7152 3.0119 391.1325)" class="st1" cx="481.4" cy="191.9" rx="1" ry="1"/>
				
					<ellipse transform="matrix(0.7152 -0.6989 0.6989 0.7152 -27.8539 361.5195)" class="st1" cx="429.7" cy="214.9" rx="1" ry="1"/>
				<ellipse transform="matrix(0.7152 -0.6989 0.6989 0.7152 3.0119 391.1325)" class="st1" cx="481.4" cy="191.9" rx="1" ry="1"/>
				
					<ellipse transform="matrix(0.7152 -0.6989 0.6989 0.7152 -27.8539 361.5195)" class="st1" cx="429.7" cy="214.9" rx="1" ry="1"/>
				<ellipse transform="matrix(0.7152 -0.6989 0.6989 0.7152 36.0639 347.7865)" class="st1" cx="444.8" cy="129.6" rx="1" ry="1"/>
				<ellipse transform="matrix(0.7152 -0.6989 0.6989 0.7152 81.3779 365.9507)" class="st1" cx="489.7" cy="83.1" rx="1" ry="1"/>
				<ellipse transform="matrix(0.7152 -0.6989 0.6989 0.7152 54.4653 381.8232)" class="st1" cx="495.7" cy="124.1" rx="1" ry="1"/>
				<ellipse transform="matrix(0.7152 -0.6989 0.6989 0.7152 81.3779 365.9507)" class="st1" cx="489.7" cy="83.1" rx="1" ry="1"/>
				<ellipse transform="matrix(0.7152 -0.6989 0.6989 0.7152 63.9384 405.9172)" class="st1" cx="530" cy="124.5" rx="1" ry="1"/>
				<ellipse transform="matrix(0.7152 -0.6989 0.6989 0.7152 81.3779 365.9507)" class="st1" cx="489.7" cy="83.1" rx="1" ry="1"/>
				<ellipse transform="matrix(0.7152 -0.6989 0.6989 0.7152 81.3779 365.9507)" class="st1" cx="489.7" cy="83.1" rx="1" ry="1"/>
				<ellipse transform="matrix(0.7152 -0.6989 0.6989 0.7152 116.62 379.2044)" class="st1" cx="523.6" cy="46.5" rx="1" ry="1"/>
				<ellipse transform="matrix(0.7152 -0.6989 0.6989 0.7152 130.6448 429.6008)" class="st1" cx="592.4" cy="54.5" rx="1" ry="1"/>
				<ellipse transform="matrix(0.7152 -0.6989 0.6989 0.7152 116.62 379.2044)" class="st1" cx="523.6" cy="46.5" rx="1" ry="1"/>
				<ellipse transform="matrix(0.7152 -0.6989 0.6989 0.7152 107.8741 414.5442)" class="st1" cx="562.6" cy="74.9" rx="1" ry="1"/>
				<ellipse transform="matrix(0.7152 -0.6989 0.6989 0.7152 116.62 379.2044)" class="st1" cx="523.6" cy="46.5" rx="1" ry="1"/>
				<ellipse transform="matrix(0.7152 -0.6989 0.6989 0.7152 131.2203 397.3141)" class="st1" cx="553.1" cy="37.7" rx="1" ry="1"/>
				<ellipse transform="matrix(0.7152 -0.6989 0.6989 0.7152 116.62 379.2044)" class="st1" cx="523.6" cy="46.5" rx="1" ry="1"/>
				<ellipse transform="matrix(0.7152 -0.6989 0.6989 0.7152 138.3223 381.6844)" class="st1" cx="537.5" cy="21.1" rx="1" ry="1"/>
				<ellipse transform="matrix(0.7152 -0.6989 0.6989 0.7152 116.62 379.2044)" class="st1" cx="523.6" cy="46.5" rx="1" ry="1"/>
				<ellipse transform="matrix(0.7152 -0.6989 0.6989 0.7152 116.62 379.2044)" class="st1" cx="523.6" cy="46.5" rx="1" ry="1"/>
				<ellipse transform="matrix(0.7152 -0.6989 0.6989 0.7152 90.3341 394.2377)" class="st1" cx="528.9" cy="86.3" rx="1" ry="1"/>
				<ellipse transform="matrix(0.7152 -0.6989 0.6989 0.7152 81.3779 365.9507)" class="st1" cx="489.7" cy="83.1" rx="1" ry="1"/>
				<ellipse transform="matrix(0.7152 -0.6989 0.6989 0.7152 90.3341 394.2377)" class="st1" cx="528.9" cy="86.3" rx="1" ry="1"/>
				<ellipse transform="matrix(0.7152 -0.6989 0.6989 0.7152 107.8741 414.5442)" class="st1" cx="562.6" cy="74.9" rx="1" ry="1"/>
				<ellipse transform="matrix(0.7152 -0.6989 0.6989 0.7152 90.3341 394.2377)" class="st1" cx="528.9" cy="86.3" rx="1" ry="1"/>
				<ellipse transform="matrix(0.7152 -0.6989 0.6989 0.7152 131.2203 397.3141)" class="st1" cx="553.1" cy="37.7" rx="1" ry="1"/>
				<ellipse transform="matrix(0.7152 -0.6989 0.6989 0.7152 90.3341 394.2377)" class="st1" cx="528.9" cy="86.3" rx="1" ry="1"/>
				<ellipse transform="matrix(0.7152 -0.6989 0.6989 0.7152 90.62 440.2544)" class="st1" cx="585.5" cy="108.9" rx="1" ry="1"/>
				<ellipse transform="matrix(0.7152 -0.6989 0.6989 0.7152 90.3341 394.2377)" class="st1" cx="528.9" cy="86.3" rx="1" ry="1"/>
				<ellipse transform="matrix(0.7152 -0.6989 0.6989 0.7152 138.3223 381.6844)" class="st1" cx="537.5" cy="21.1" rx="1" ry="1"/>
				<ellipse transform="matrix(0.7152 -0.6989 0.6989 0.7152 90.3341 394.2377)" class="st1" cx="528.9" cy="86.3" rx="1" ry="1"/>
				<ellipse transform="matrix(0.7152 -0.6989 0.6989 0.7152 54.4653 381.8232)" class="st1" cx="495.7" cy="124.1" rx="1" ry="1"/>
				<ellipse transform="matrix(0.7152 -0.6989 0.6989 0.7152 90.3341 394.2377)" class="st1" cx="528.9" cy="86.3" rx="1" ry="1"/>
				<ellipse transform="matrix(0.7152 -0.6989 0.6989 0.7152 63.9384 405.9172)" class="st1" cx="530" cy="124.5" rx="1" ry="1"/>
				<ellipse transform="matrix(0.7152 -0.6989 0.6989 0.7152 90.3341 394.2377)" class="st1" cx="528.9" cy="86.3" rx="1" ry="1"/>
				<ellipse transform="matrix(0.7152 -0.6989 0.6989 0.7152 46.7618 414.0167)" class="st1" cx="531.4" cy="149.6" rx="1" ry="1"/>
				<ellipse transform="matrix(0.7152 -0.6989 0.6989 0.7152 90.3341 394.2377)" class="st1" cx="528.9" cy="86.3" rx="1" ry="1"/>
				<ellipse transform="matrix(0.7152 -0.6989 0.6989 0.7152 150.0089 475.4808)" class="st1" cx="658.4" cy="53.7" rx="1" ry="1"/>
				<ellipse transform="matrix(0.7152 -0.6989 0.6989 0.7152 120.4268 462.5321)" class="st1" cx="627.7" cy="83.5" rx="1" ry="1"/>
				<ellipse transform="matrix(0.7152 -0.6989 0.6989 0.7152 90.4644 472.8546)" class="st1" cx="625.4" cy="125.4" rx="1" ry="1"/>
				<ellipse transform="matrix(0.7152 -0.6989 0.6989 0.7152 120.4268 462.5321)" class="st1" cx="627.7" cy="83.5" rx="1" ry="1"/>
				<ellipse transform="matrix(0.7152 -0.6989 0.6989 0.7152 163.4333 480.2809)" class="st1" cx="671" cy="39.6" rx="1" ry="1"/>
				<ellipse transform="matrix(0.7152 -0.6989 0.6989 0.7152 120.4268 462.5321)" class="st1" cx="627.7" cy="83.5" rx="1" ry="1"/>
				<ellipse transform="matrix(0.7152 -0.6989 0.6989 0.7152 130.6448 429.6008)" class="st1" cx="592.4" cy="54.5" rx="1" ry="1"/>
				<ellipse transform="matrix(0.7152 -0.6989 0.6989 0.7152 120.4268 462.5321)" class="st1" cx="627.7" cy="83.5" rx="1" ry="1"/>
				<ellipse transform="matrix(0.7152 -0.6989 0.6989 0.7152 107.8741 414.5442)" class="st1" cx="562.6" cy="74.9" rx="1" ry="1"/>
				<ellipse transform="matrix(0.7152 -0.6989 0.6989 0.7152 120.4268 462.5321)" class="st1" cx="627.7" cy="83.5" rx="1" ry="1"/>
				<ellipse transform="matrix(0.7152 -0.6989 0.6989 0.7152 90.62 440.2544)" class="st1" cx="585.5" cy="108.9" rx="1" ry="1"/>
				<ellipse transform="matrix(0.7152 -0.6989 0.6989 0.7152 120.4268 462.5321)" class="st1" cx="627.7" cy="83.5" rx="1" ry="1"/>
				<ellipse transform="matrix(0.7152 -0.6989 0.6989 0.7152 134.3307 439.5531)" class="st1" cx="606.5" cy="55" rx="1" ry="1"/>
				<ellipse transform="matrix(0.7152 -0.6989 0.6989 0.7152 120.4268 462.5321)" class="st1" cx="627.7" cy="83.5" rx="1" ry="1"/>
				<ellipse transform="matrix(0.7152 -0.6989 0.6989 0.7152 181.3238 458.9723)" class="st1" cx="653.8" cy="7" rx="1" ry="1"/>
				<ellipse transform="matrix(0.7152 -0.6989 0.6989 0.7152 193.8331 480.7546)" class="st1" cx="686.8" cy="2.5" rx="1" ry="1"/>
				<ellipse transform="matrix(0.7152 -0.6989 0.6989 0.7152 150.0089 475.4808)" class="st1" cx="658.4" cy="53.7" rx="1" ry="1"/>
				<ellipse transform="matrix(0.7152 -0.6989 0.6989 0.7152 193.8331 480.7546)" class="st1" cx="686.8" cy="2.5" rx="1" ry="1"/>
				<ellipse transform="matrix(0.7152 -0.6989 0.6989 0.7152 163.4333 480.2809)" class="st1" cx="671" cy="39.6" rx="1" ry="1"/>
				<ellipse transform="matrix(0.7152 -0.6989 0.6989 0.7152 193.8331 480.7546)" class="st1" cx="686.8" cy="2.5" rx="1" ry="1"/>
				
					<ellipse transform="matrix(0.7152 -0.6989 0.6989 0.7152 204.9881 443.9433)" class="st1" cx="647.2" cy="-29.5" rx="1" ry="1"/>
				<ellipse transform="matrix(0.7152 -0.6989 0.6989 0.7152 193.8331 480.7546)" class="st1" cx="686.8" cy="2.5" rx="1" ry="1"/>
				
					<ellipse transform="matrix(0.7152 -0.6989 0.6989 0.7152 204.9881 443.9433)" class="st1" cx="647.2" cy="-29.5" rx="1" ry="1"/>
				<ellipse transform="matrix(0.7152 -0.6989 0.6989 0.7152 193.8331 480.7546)" class="st1" cx="686.8" cy="2.5" rx="1" ry="1"/>
				
					<ellipse transform="matrix(0.7152 -0.6989 0.6989 0.7152 214.9843 466.4637)" class="st1" cx="679.8" cy="-30.6" rx="1" ry="1"/>
				<ellipse transform="matrix(0.7152 -0.6989 0.6989 0.7152 193.8331 480.7546)" class="st1" cx="686.8" cy="2.5" rx="1" ry="1"/>
				<ellipse transform="matrix(0.7152 -0.6989 0.6989 0.7152 203.2075 444.5751)" class="st1" cx="647.1" cy="-27" rx="1" ry="1"/>
				<ellipse transform="matrix(0.7152 -0.6989 0.6989 0.7152 193.8331 480.7546)" class="st1" cx="686.8" cy="2.5" rx="1" ry="1"/>
				
					<ellipse transform="matrix(0.7152 -0.6989 0.6989 0.7152 214.9843 466.4637)" class="st1" cx="679.8" cy="-30.6" rx="1" ry="1"/>
				<ellipse transform="matrix(0.7152 -0.6989 0.6989 0.7152 257.464 483.1646)" class="st1" cx="721.6" cy="-74.3" rx="1" ry="1"/>
				<ellipse transform="matrix(0.7152 -0.6989 0.6989 0.7152 163.1353 426.4026)" class="st1" cx="604.8" cy="13" rx="1" ry="1"/>
				<ellipse transform="matrix(0.7152 -0.6989 0.6989 0.7152 166.6489 396.3128)" class="st1" cx="569.6" cy="-6.3" rx="1" ry="1"/>
				<ellipse transform="matrix(0.7152 -0.6989 0.6989 0.7152 130.6448 429.6008)" class="st1" cx="592.4" cy="54.5" rx="1" ry="1"/>
				<ellipse transform="matrix(0.7152 -0.6989 0.6989 0.7152 166.6489 396.3128)" class="st1" cx="569.6" cy="-6.3" rx="1" ry="1"/>
				<ellipse transform="matrix(0.7152 -0.6989 0.6989 0.7152 131.2203 397.3141)" class="st1" cx="553.1" cy="37.7" rx="1" ry="1"/>
				<ellipse transform="matrix(0.7152 -0.6989 0.6989 0.7152 166.6489 396.3128)" class="st1" cx="569.6" cy="-6.3" rx="1" ry="1"/>
				<ellipse transform="matrix(0.7152 -0.6989 0.6989 0.7152 138.3223 381.6844)" class="st1" cx="537.5" cy="21.1" rx="1" ry="1"/>
				<ellipse transform="matrix(0.7152 -0.6989 0.6989 0.7152 166.6489 396.3128)" class="st1" cx="569.6" cy="-6.3" rx="1" ry="1"/>
				
					<ellipse transform="matrix(0.7152 -0.6989 0.6989 0.7152 193.3184 422.7884)" class="st1" cx="615.4" cy="-25.8" rx="1" ry="1"/>
				<ellipse transform="matrix(0.7152 -0.6989 0.6989 0.7152 166.6489 396.3128)" class="st1" cx="569.6" cy="-6.3" rx="1" ry="1"/>
				<ellipse transform="matrix(0.7152 -0.6989 0.6989 0.7152 257.464 483.1646)" class="st1" cx="721.6" cy="-74.3" rx="1" ry="1"/>
				<ellipse transform="matrix(0.7152 -0.6989 0.6989 0.7152 240.2303 457.197)" class="st1" cx="681.1" cy="-66.2" rx="1" ry="1"/>
				<ellipse transform="matrix(0.7152 -0.6989 0.6989 0.7152 193.8331 480.7546)" class="st1" cx="686.8" cy="2.5" rx="1" ry="1"/>
				<ellipse transform="matrix(0.7152 -0.6989 0.6989 0.7152 240.2303 457.197)" class="st1" cx="681.1" cy="-66.2" rx="1" ry="1"/>
				
					<ellipse transform="matrix(0.7152 -0.6989 0.6989 0.7152 204.9881 443.9433)" class="st1" cx="647.2" cy="-29.5" rx="1" ry="1"/>
				<ellipse transform="matrix(0.7152 -0.6989 0.6989 0.7152 240.2303 457.197)" class="st1" cx="681.1" cy="-66.2" rx="1" ry="1"/>
				
					<ellipse transform="matrix(0.7152 -0.6989 0.6989 0.7152 204.9881 443.9433)" class="st1" cx="647.2" cy="-29.5" rx="1" ry="1"/>
				<ellipse transform="matrix(0.7152 -0.6989 0.6989 0.7152 240.2303 457.197)" class="st1" cx="681.1" cy="-66.2" rx="1" ry="1"/>
				
					<ellipse transform="matrix(0.7152 -0.6989 0.6989 0.7152 214.9843 466.4637)" class="st1" cx="679.8" cy="-30.6" rx="1" ry="1"/>
				<ellipse transform="matrix(0.7152 -0.6989 0.6989 0.7152 240.2303 457.197)" class="st1" cx="681.1" cy="-66.2" rx="1" ry="1"/>
				<ellipse transform="matrix(0.7152 -0.6989 0.6989 0.7152 203.2075 444.5751)" class="st1" cx="647.1" cy="-27" rx="1" ry="1"/>
				<ellipse transform="matrix(0.7152 -0.6989 0.6989 0.7152 240.2303 457.197)" class="st1" cx="681.1" cy="-66.2" rx="1" ry="1"/>
				
					<ellipse transform="matrix(0.7152 -0.6989 0.6989 0.7152 -27.8539 361.5195)" class="st1" cx="429.7" cy="214.9" rx="1" ry="1"/>
				
					<ellipse transform="matrix(0.7152 -0.6989 0.6989 0.7152 -38.5727 409.1262)" class="st1" cx="482.7" cy="251.9" rx="1" ry="1"/>
				
					<ellipse transform="matrix(0.7152 -0.6989 0.6989 0.7152 -60.2833 401.4059)" class="st1" cx="462.4" cy="274.7" rx="1" ry="1"/>
				
					<ellipse transform="matrix(0.7152 -0.6989 0.6989 0.7152 -38.5727 409.1262)" class="st1" cx="482.7" cy="251.9" rx="1" ry="1"/>
				
					<ellipse transform="matrix(0.7152 -0.6989 0.6989 0.7152 -53.7337 369.0048)" class="st1" cx="425.9" cy="250.4" rx="1" ry="1"/>
				
					<ellipse transform="matrix(0.7152 -0.6989 0.6989 0.7152 -38.5727 409.1262)" class="st1" cx="482.7" cy="251.9" rx="1" ry="1"/>
				<ellipse transform="matrix(0.7152 -0.6989 0.6989 0.7152 -3.5241 431.3954)" class="st1" cx="527.6" cy="220" rx="1" ry="1"/>
				
					<ellipse transform="matrix(0.7152 -0.6989 0.6989 0.7152 -38.5727 409.1262)" class="st1" cx="482.7" cy="251.9" rx="1" ry="1"/>
				
					<ellipse transform="matrix(0.7152 -0.6989 0.6989 0.7152 -63.1636 371.1168)" class="st1" cx="423.8" cy="263.1" rx="1" ry="1"/>
				
					<ellipse transform="matrix(0.7152 -0.6989 0.6989 0.7152 -38.5727 409.1262)" class="st1" cx="482.7" cy="251.9" rx="1" ry="1"/>
				<ellipse transform="matrix(0.7152 -0.6989 0.6989 0.7152 -16.4724 398.817)" class="st1" cx="481.1" cy="219.6" rx="1" ry="1"/>
				
					<ellipse transform="matrix(0.7152 -0.6989 0.6989 0.7152 -38.5727 409.1262)" class="st1" cx="482.7" cy="251.9" rx="1" ry="1"/>
				<ellipse transform="matrix(0.7152 -0.6989 0.6989 0.7152 -16.4724 398.817)" class="st1" cx="481.1" cy="219.6" rx="1" ry="1"/>
				
					<ellipse transform="matrix(0.7152 -0.6989 0.6989 0.7152 -38.5727 409.1262)" class="st1" cx="482.7" cy="251.9" rx="1" ry="1"/>
				<ellipse transform="matrix(0.7152 -0.6989 0.6989 0.7152 -8.6728 424.2767)" class="st1" cx="516.2" cy="222.8" rx="1" ry="1"/>
				
					<ellipse transform="matrix(0.7152 -0.6989 0.6989 0.7152 -38.5727 409.1262)" class="st1" cx="482.7" cy="251.9" rx="1" ry="1"/>
				<ellipse transform="matrix(0.7152 -0.6989 0.6989 0.7152 3.0119 391.1325)" class="st1" cx="481.4" cy="191.9" rx="1" ry="1"/>
				
					<ellipse transform="matrix(0.7152 -0.6989 0.6989 0.7152 -38.5727 409.1262)" class="st1" cx="482.7" cy="251.9" rx="1" ry="1"/>
				<ellipse transform="matrix(0.7152 -0.6989 0.6989 0.7152 3.0119 391.1325)" class="st1" cx="481.4" cy="191.9" rx="1" ry="1"/>
				
					<ellipse transform="matrix(0.7152 -0.6989 0.6989 0.7152 -38.5727 409.1262)" class="st1" cx="482.7" cy="251.9" rx="1" ry="1"/>
			</g>
		</g>
	</g>
	<text transform="matrix(1 0 0 1 58.3651 63.5216)" class="st2"><tspan x="0" y="0" class="st3 st4 st5">Owner:</tspan><tspan x="75.9" y="0" class="st3 st6 st5"> </tspan></text>
	<g>
		<text transform="matrix(1 0 0 1 158.7999 63.5217)" class="st1 st7 st5">jamessmith</text>
	</g>
	<text transform="matrix(1 0 0 1 58.3651 99.5216)" class="st2"><tspan x="0" y="0" class="st3 st4 st5">Date created:</tspan><tspan x="141.6" y="0" class="st3 st6 st5"> </tspan></text>
	<g>
		<text transform="matrix(1 0 0 1 228.0001 99.5219)" class="st1 st7 st5">01/01/2019</text>
	</g>
	<text transform="matrix(1 0 0 1 58.3651 137.5216)" class="st8 st4 st5">Expiration date:</text>
	<g>
		<text transform="matrix(1 0 0 1 252.0002 137.5219)" class="st1 st7 st5">01/01/2020</text>
	</g>
	<text transform="matrix(1 0 0 1 58.3651 177.5216)" class="st8 st4 st5">Type:</text>
	<g>
		<text transform="matrix(1 0 0 1 136.0002 177.5219)" class="st1 st7 st5">Contract</text>
	</g>
	<text transform="matrix(1 0 0 1 58.3651 217.5216)" class="st8 st4 st5">Expiration date:</text>
	<g>
		<text transform="matrix(1 0 0 1 241.0002 217.5219)" class="st1 st7 st5">Contract</text>
	</g>
</g>
<g id="Layer_2">
</g>
</svg>
